<?xml version="1.0" standalone="no"?>
<!DOCTYPE svg PUBLIC "-//W3C//DTD SVG 20010904//EN"
 "http://www.w3.org/TR/2001/REC-SVG-20010904/DTD/svg10.dtd">
<svg version="1.0" xmlns="http://www.w3.org/2000/svg"
 width="1280.000000pt" height="1113.000000pt" viewBox="0 0 1280.000000 1113.000000"
 preserveAspectRatio="xMidYMid meet">
<metadata>
Created by potrace 1.15, written by Peter Selinger 2001-2017
</metadata>
<g transform="translate(0.000000,1113.000000) scale(0.100000,-0.100000)"
fill="#000000" stroke="none">
<path d="M9810 11124 c-14 -3 -92 -16 -174 -29 -217 -36 -261 -75 -86 -75 56
0 93 5 110 15 66 38 100 48 186 53 89 4 134 -5 134 -29 0 -5 -9 -22 -21 -38
-25 -34 -23 -84 4 -89 29 -6 67 26 88 73 24 53 18 70 -35 97 -41 21 -150 32
-206 22z"/>
<path d="M8649 11036 c-174 -80 -197 -95 -298 -190 -48 -45 -106 -88 -135
-102 l-51 -23 40 0 c48 -1 82 -22 87 -53 4 -27 44 -44 81 -34 63 16 77 78 27
128 -16 16 -30 35 -30 42 0 17 117 129 155 149 59 30 96 30 170 2 118 -44 169
-18 144 74 -13 51 -26 71 -43 70 -6 0 -72 -28 -147 -63z m141 -31 c17 -20 5
-45 -20 -45 -11 0 -23 7 -26 15 -6 15 11 45 26 45 4 0 13 -7 20 -15z m-405
-285 c18 -19 18 -22 2 -38 -22 -22 -51 -6 -55 32 -4 33 26 36 53 6z"/>
<path d="M10125 11090 c-4 -6 8 -10 29 -10 20 0 36 5 36 10 0 6 -13 10 -29 10
-17 0 -33 -4 -36 -10z"/>
<path d="M9255 10979 c-65 -33 -151 -69 -190 -81 l-70 -22 39 -7 c47 -8 66
-30 66 -80 0 -85 77 -118 185 -80 82 29 152 98 125 125 -8 8 -21 0 -50 -34
l-38 -45 -79 -3 c-91 -4 -120 9 -110 50 9 36 98 120 183 173 41 26 74 51 74
56 0 14 -8 11 -135 -52z"/>
<path d="M5767 10961 c-74 -19 -123 -51 -77 -51 14 1 63 9 110 18 61 12 85 21
85 32 0 22 -39 22 -118 1z"/>
<path d="M9665 10950 c-25 -37 -44 -44 -117 -41 -46 2 -58 -1 -58 -13 0 -18
33 -42 72 -51 35 -9 89 23 117 69 37 58 23 92 -14 36z"/>
<path d="M5966 10942 c-16 -26 17 -142 41 -142 19 0 26 24 19 63 -8 40 -50 95
-60 79z"/>
<path d="M7695 10918 c-67 -23 -110 -31 -170 -33 -93 -3 -231 -41 -289 -80
-56 -38 -93 -55 -118 -55 -48 0 -144 -32 -267 -89 -69 -32 -141 -61 -159 -65
-19 -3 -88 -30 -155 -59 -67 -30 -153 -64 -190 -76 -167 -53 -287 -179 -214
-225 64 -40 87 -30 87 40 0 52 23 81 89 117 56 31 75 28 104 -16 8 -13 29 -30
46 -37 49 -20 69 5 73 89 l3 66 45 22 c25 12 69 27 98 34 l53 12 38 -37 c48
-47 76 -42 67 14 -10 61 30 96 163 141 81 28 93 26 116 -23 16 -34 25 -43 45
-43 21 0 27 8 41 50 27 84 101 143 209 166 66 14 100 -4 100 -55 0 -77 75 -64
128 22 46 74 64 83 187 89 116 6 129 2 139 -48 5 -25 10 -30 28 -27 47 6 25
94 -32 123 -51 26 -161 19 -265 -17z"/>
<path d="M5500 10812 c-77 -76 -103 -115 -61 -93 28 15 128 109 152 142 41 58
-8 31 -91 -49z"/>
<path d="M8849 10832 c-129 -82 -379 -310 -379 -346 0 -20 39 -36 86 -36 39 0
44 11 12 25 -37 16 -34 48 7 84 42 37 80 40 144 11 66 -30 126 -27 162 9 29
30 40 83 19 96 -5 3 -39 9 -75 14 -36 4 -70 12 -76 18 -15 15 22 52 94 93 30
17 61 38 67 45 21 25 -11 18 -61 -13z m-19 -192 c23 -23 19 -40 -10 -40 -45 0
-63 23 -38 48 17 17 25 15 48 -8z"/>
<path d="M5827 10753 c-14 -13 -7 -43 12 -53 41 -21 123 -5 136 28 4 12 -2 14
-33 8 -26 -4 -45 -1 -58 9 -20 15 -46 19 -57 8z"/>
<path d="M10842 10750 c-50 -4 -116 -14 -145 -20 -118 -29 -411 -169 -483
-232 -25 -22 -60 -37 -123 -54 -49 -13 -150 -50 -224 -83 -151 -67 -217 -91
-250 -91 -67 0 -187 -93 -187 -145 0 -35 23 -38 157 -21 65 8 156 18 203 21
131 10 184 23 211 51 22 23 23 27 8 52 -19 34 -75 72 -105 72 -63 0 14 48 126
79 41 12 82 21 91 21 10 0 36 -16 59 -35 43 -36 83 -45 96 -23 5 7 7 41 6 76
-3 74 3 84 70 118 72 37 98 30 98 -26 0 -47 60 -65 101 -31 21 16 24 29 25 85
2 73 10 88 64 116 48 24 167 47 180 34 6 -6 -4 -26 -25 -53 -40 -50 -47 -96
-15 -106 33 -10 78 22 111 81 17 30 39 59 50 64 32 18 103 22 147 11 35 -10
42 -16 42 -37 0 -28 28 -44 41 -23 14 23 10 76 -7 90 -20 17 -184 21 -322 9z
m-317 -211 c0 -17 -6 -24 -20 -24 -23 0 -33 34 -13 46 20 13 33 5 33 -22z
m-635 -289 c8 0 31 -10 50 -21 32 -20 33 -22 15 -35 -22 -16 -118 -19 -146 -4
-41 23 -4 76 46 65 11 -3 27 -5 35 -5z m-225 -61 c19 -19 -17 -34 -90 -37 -78
-4 -96 6 -52 29 50 28 118 32 142 8z"/>
<path d="M8095 10703 c-16 -9 -79 -53 -139 -99 -61 -47 -130 -90 -157 -99 -82
-28 -177 -141 -138 -166 28 -18 53 -5 60 30 8 40 32 65 81 85 36 16 37 15 78
-19 45 -38 91 -51 142 -40 101 23 114 96 22 135 -61 27 -58 46 23 118 70 63
80 82 28 55z m-66 -218 c20 -20 4 -35 -38 -35 -50 0 -75 25 -46 47 22 15 62
10 84 -12z"/>
<path d="M5607 10684 c-3 -3 4 -21 14 -39 17 -28 18 -38 9 -55 -16 -30 -69
-50 -133 -50 -86 0 -101 32 -37 79 43 31 39 48 -8 36 -39 -10 -85 -40 -171
-113 -88 -75 -146 -113 -251 -164 -87 -43 -193 -127 -250 -199 -44 -56 -55
-86 -46 -124 9 -36 35 -31 52 11 15 36 16 36 61 29 62 -9 138 11 163 42 40 51
18 91 -54 101 l-49 7 37 32 c41 37 101 70 131 73 43 5 55 -1 72 -37 13 -26 26
-39 43 -41 35 -6 95 15 130 44 42 36 40 67 -10 113 -22 20 -40 42 -40 48 0 17
48 71 70 78 13 4 33 -4 60 -26 35 -29 48 -33 93 -32 98 2 187 59 187 119 0 36
-54 87 -73 68z m-329 -307 c6 -28 -17 -47 -55 -47 -41 0 -53 22 -27 51 23 25
77 23 82 -4z m-323 -181 c16 -11 17 -17 7 -29 -17 -21 -69 -40 -87 -33 -22 8
-18 43 7 60 28 20 49 20 73 2z"/>
<path d="M6715 9940 c-49 -4 -144 -17 -210 -29 -133 -22 -299 -37 -510 -46
-253 -10 -457 -25 -615 -45 -215 -27 -361 -37 -765 -55 -474 -21 -682 -33
-724 -45 -20 -5 -115 -19 -211 -30 -184 -22 -331 -49 -415 -75 -33 -11 -116
-19 -250 -25 -273 -12 -500 -51 -649 -110 -105 -42 -307 -96 -402 -108 -83
-10 -215 -52 -319 -103 -109 -52 -315 -250 -315 -301 0 -11 7 -32 16 -47 43
-73 161 -103 242 -62 57 29 69 27 92 -19 25 -49 86 -95 154 -115 28 -9 186
-33 351 -55 357 -47 404 -55 464 -74 69 -23 147 -34 351 -51 102 -9 253 -24
335 -35 270 -36 680 -54 1570 -70 1010 -18 1367 -29 1420 -42 38 -10 55 -21
72 -47 27 -40 29 -79 8 -188 -8 -43 -15 -129 -15 -191 0 -112 0 -113 -26 -122
-14 -6 -39 -10 -56 -10 -37 0 -58 -20 -233 -233 -188 -229 -268 -345 -340
-492 -62 -128 -130 -317 -160 -445 -20 -89 -68 -632 -61 -700 3 -30 12 -75 21
-99 8 -25 13 -53 9 -63 -3 -10 -30 -48 -61 -85 -75 -91 -120 -160 -180 -273
-27 -52 -99 -176 -158 -275 -115 -191 -298 -549 -359 -702 -43 -107 -57 -190
-35 -204 8 -5 31 -9 51 -9 25 0 40 -6 46 -17 5 -10 12 -68 16 -129 7 -127 16
-159 63 -228 33 -49 42 -76 23 -76 -5 0 -10 6 -10 14 0 24 -21 30 -38 12 -53
-52 28 -765 118 -1045 23 -74 25 -107 5 -141 -19 -33 -18 -40 1 -40 51 0 121
-153 108 -238 -5 -36 -3 -47 14 -65 32 -34 100 -186 118 -263 8 -37 31 -93 49
-124 25 -42 35 -71 40 -122 6 -54 13 -73 35 -96 15 -16 41 -68 59 -118 18 -49
55 -141 83 -204 28 -63 53 -133 55 -155 3 -33 -48 -322 -59 -329 -45 -30 -452
-207 -723 -315 -243 -96 -295 -122 -295 -145 0 -33 65 -39 309 -30 316 12
1531 8 1789 -6 236 -12 270 -18 366 -65 81 -41 103 -43 140 -14 19 15 34 19
54 14 15 -3 100 -51 190 -106 162 -99 276 -150 362 -163 25 -3 137 -15 250
-25 113 -11 218 -24 233 -30 48 -19 243 -8 266 14 10 11 -35 45 -124 93 -49
27 -91 54 -92 59 -6 18 121 24 610 32 263 5 480 11 483 13 12 12 -204 18 -693
18 -293 0 -533 4 -533 9 0 22 228 33 735 37 292 2 546 7 565 10 80 14 -23 26
-315 35 -299 9 -365 14 -365 29 0 12 23 27 52 34 14 3 40 17 56 31 46 38 76
46 242 59 l155 12 -134 8 -134 8 81 79 c50 49 83 90 87 108 4 20 -7 68 -39
164 -25 74 -51 170 -56 213 -6 44 -15 110 -21 147 -12 85 -59 209 -102 270
-43 61 -90 97 -221 169 -59 34 -146 89 -192 123 -72 54 -93 64 -150 74 -88 16
-168 58 -242 126 -89 83 -96 105 -90 322 3 98 10 190 16 206 7 15 23 32 38 37
37 15 27 42 -21 56 -45 13 -47 26 -13 82 27 45 52 55 125 53 72 -2 125 20 166
69 51 60 44 146 -14 170 -24 11 -34 9 -69 -9 -22 -11 -40 -17 -40 -13 0 4 9
34 21 67 30 85 47 192 59 377 6 90 16 180 22 200 6 20 37 70 69 110 87 108 97
133 108 278 25 311 25 849 1 784 -12 -31 -28 -210 -45 -501 -23 -381 -46 -491
-115 -545 l-25 -20 -23 27 -23 28 -30 -29 c-45 -43 -37 -51 28 -27 19 8 27
-24 13 -56 -14 -34 -47 -51 -100 -51 -46 0 -55 -11 -55 -69 0 -42 -2 -45 -35
-54 -49 -13 -214 -4 -234 12 -12 10 -16 31 -16 82 0 43 -7 87 -19 118 -14 37
-17 66 -14 122 3 43 -4 150 -17 254 -25 217 -38 485 -22 485 5 0 50 -32 99
-70 131 -104 208 -136 208 -85 0 15 -22 31 -87 65 -163 85 -165 99 -37 252 41
49 58 88 37 88 -20 0 -57 -29 -125 -98 -34 -34 -66 -62 -72 -62 -21 0 -156
221 -257 422 -51 101 -74 130 -74 92 0 -9 22 -68 49 -132 27 -65 53 -130 57
-146 7 -28 6 -29 -22 -22 -51 12 -108 59 -121 100 -7 20 -20 44 -29 53 -42 42
53 349 157 508 73 112 199 239 273 275 111 53 263 64 286 19 8 -14 21 -19 55
-19 51 0 85 -25 85 -62 1 -61 29 -151 69 -217 78 -128 116 -274 145 -548 12
-108 14 -116 25 -88 22 53 24 145 7 233 -13 59 -16 104 -11 160 6 72 5 79 -19
111 -14 19 -26 43 -26 53 0 68 -234 531 -330 653 -50 63 -200 299 -200 314 0
5 25 27 55 50 77 58 84 73 94 189 10 109 14 122 76 202 59 76 86 133 92 195 5
51 4 55 -31 91 -30 31 -36 44 -36 80 0 54 12 86 58 153 34 48 37 60 37 120 0
54 -6 78 -33 133 -27 56 -32 78 -32 138 0 79 -14 115 -64 168 -35 38 -95 72
-126 72 -38 0 -93 30 -131 71 l-37 40 -68 -3 -68 -3 -7 33 c-4 20 -23 48 -48
71 -30 28 -41 46 -41 67 0 37 -25 74 -50 74 -10 0 -40 -11 -66 -25 -26 -14
-55 -25 -66 -25 -31 0 -86 -27 -211 -102 -64 -39 -120 -68 -123 -65 -10 10 18
48 114 155 48 53 96 109 107 123 47 60 74 63 765 89 763 29 871 35 1590 91
557 43 549 42 1100 140 393 70 642 121 965 199 291 69 355 97 447 191 21 22
54 42 76 48 74 20 236 159 247 213 18 82 -129 157 -376 193 -63 8 -154 24
-204 35 -121 25 -130 26 -365 50 -254 25 -358 42 -527 86 -179 46 -261 52
-919 69 -754 20 -932 31 -1159 72 -76 14 -174 17 -630 18 -485 1 -561 3 -745
23 -228 25 -699 37 -855 22z m-626 -140 c13 -7 11 -11 -12 -19 -46 -18 -140
-29 -407 -51 -140 -12 -283 -28 -318 -36 -82 -18 -329 -48 -622 -74 -342 -30
-571 -56 -833 -96 -318 -48 -443 -64 -496 -64 -55 0 -84 -15 -61 -30 26 -17
126 -11 466 26 394 43 716 56 749 30 17 -13 18 -17 5 -26 -43 -29 -324 -93
-546 -124 -61 -9 -243 -25 -405 -36 -444 -31 -596 -53 -689 -100 -42 -21 -51
-43 -24 -54 24 -9 177 -7 283 4 52 6 214 28 360 50 146 21 365 53 486 70 121
17 290 44 375 60 245 46 323 48 308 8 -14 -36 -230 -124 -393 -159 -49 -11
-110 -29 -135 -40 -49 -22 -100 -65 -100 -86 0 -33 162 -5 465 81 333 94 629
148 940 171 192 14 220 19 400 71 122 36 302 27 459 -23 81 -25 160 -63 311
-148 44 -25 105 -52 135 -61 30 -9 74 -27 97 -40 32 -18 63 -26 130 -30 134
-9 202 10 421 115 290 139 405 171 615 171 219 0 566 -55 822 -130 55 -16 180
-45 277 -65 98 -19 195 -42 215 -51 37 -15 37 -16 14 -25 -13 -5 -107 -13
-210 -19 -126 -6 -209 -15 -256 -28 -149 -41 -342 -37 -390 8 l-22 21 -42 -22
c-38 -19 -52 -21 -129 -15 -85 6 -88 5 -131 -24 -40 -27 -51 -30 -125 -30
-103 0 -152 14 -199 56 -46 42 -61 44 -52 4 6 -26 3 -31 -20 -40 -101 -39
-1992 -67 -2520 -38 -221 13 -374 14 -930 7 -333 -4 -341 -4 -387 18 -42 19
-48 26 -48 52 0 37 -12 40 -34 6 -29 -44 -68 -56 -219 -65 -140 -8 -177 -15
-177 -30 0 -12 93 -19 350 -25 333 -9 388 -22 341 -86 -13 -17 -21 -32 -19
-34 2 -3 27 3 56 12 46 15 52 20 50 42 -6 50 -154 47 1882 39 657 -2 1208 -8
1223 -13 21 -6 27 -12 24 -26 -8 -32 10 -31 46 1 64 56 90 61 351 71 133 5
286 15 341 21 55 6 199 13 320 14 162 2 276 9 435 29 289 35 816 52 1200 39
l275 -10 31 32 c37 38 52 41 229 48 149 6 280 35 385 85 36 17 58 29 48 27
-21 -6 -234 -38 -499 -76 -201 -28 -209 -29 -315 -15 -176 24 -464 101 -464
124 0 15 73 21 250 21 177 0 306 -12 324 -30 14 -14 43 -12 69 4 74 46 654 77
747 40 44 -18 46 -21 25 -48 -25 -33 -18 -35 48 -15 46 14 93 19 183 19 121 0
122 0 128 25 9 34 37 50 134 75 l84 21 34 -21 c43 -25 44 -25 44 -1 0 38 -153
81 -340 96 -62 5 -116 2 -200 -11 -96 -16 -174 -19 -465 -18 -411 0 -516 9
-826 70 -246 48 -337 74 -365 105 -36 40 -5 43 351 40 203 -2 439 -15 660 -36
135 -13 202 -24 355 -55 25 -5 88 -9 140 -10 136 -1 330 -17 436 -36 71 -12
99 -13 132 -5 64 18 62 32 -5 25 -48 -5 -65 -3 -100 16 -32 17 -70 23 -167 30
-302 22 -814 149 -834 208 -9 27 94 6 408 -83 177 -51 234 -60 450 -75 218
-14 333 -28 420 -51 41 -11 122 -24 180 -29 58 -5 146 -21 195 -35 102 -30
200 -75 194 -90 -2 -6 -44 -9 -104 -8 l-100 3 54 -26 53 -26 -48 -50 c-57 -57
-80 -66 -122 -44 -94 48 -420 -24 -574 -127 -108 -73 -102 -72 -164 -46 -62
24 -56 26 -164 -39 -40 -24 -55 -27 -130 -26 -47 0 -119 4 -160 8 -68 8 -80 6
-119 -14 -62 -31 -136 -103 -160 -156 -23 -49 -58 -69 -100 -59 -14 4 -56 29
-93 57 -95 70 -119 70 -198 -6 l-61 -58 -57 6 c-150 17 -230 18 -374 3 -94
-10 -301 -18 -533 -22 -535 -8 -740 -24 -816 -63 -31 -15 -81 -17 -549 -17
-394 0 -534 -3 -595 -14 -72 -12 -84 -12 -112 3 -43 22 -57 21 -139 -14 -39
-16 -94 -35 -122 -40 -44 -10 -56 -9 -98 10 -46 21 -57 22 -333 18 -195 -3
-296 -8 -316 -17 -16 -7 -49 -31 -72 -53 -53 -52 -85 -53 -152 -4 -26 19 -67
39 -92 45 -24 5 -228 12 -454 16 -225 3 -516 13 -645 21 -129 8 -541 19 -915
24 -821 12 -943 19 -1307 69 -320 45 -429 57 -607 66 -69 4 -132 10 -142 13
-9 4 -37 34 -63 68 -54 73 -132 147 -149 141 -7 -2 -19 -23 -27 -47 -24 -69
-107 -103 -150 -60 -49 49 0 127 89 141 89 14 103 50 25 65 -19 3 -37 10 -39
15 -7 11 104 63 190 88 39 11 147 39 240 61 247 60 341 87 426 125 123 54 307
87 559 100 138 7 222 19 356 50 131 31 270 50 529 75 355 33 441 39 817 60
381 20 601 40 728 64 70 14 245 32 385 40 90 5 307 -4 324 -14z m734 -328 c41
-39 32 -86 -12 -62 -28 14 -64 68 -57 85 7 19 33 10 69 -23z m5193 -296 c3 -8
-2 -29 -12 -48 -17 -32 -17 -32 -27 -10 -7 15 -7 30 1 47 13 28 30 33 38 11z
m-4778 -740 c5 -37 -47 -112 -136 -198 -88 -84 -133 -113 -229 -146 -152 -52
-295 -152 -348 -242 -25 -42 -36 -43 -54 -6 -11 23 -15 98 -19 311 l-5 282 78
6 c109 10 257 8 274 -2 24 -15 -5 -22 -127 -31 -108 -7 -172 -23 -172 -40 0
-11 38 -20 83 -20 37 0 50 -16 22 -26 -21 -9 -19 -41 4 -54 11 -5 33 -10 49
-10 38 0 44 -16 31 -86 -18 -100 2 -108 86 -34 45 39 69 51 113 61 69 14 152
39 152 45 0 3 -30 2 -67 -1 -38 -3 -74 -2 -82 3 -19 13 -3 35 20 29 10 -3 30
4 44 15 14 11 55 24 91 30 59 10 64 13 48 25 -17 12 -16 14 7 39 37 41 101 85
118 82 9 -2 17 -16 19 -32z m-328 5 c0 -21 -22 -33 -45 -24 -14 5 -14 8 1 24
22 24 44 24 44 0z m-10 -70 c0 -13 -70 -56 -113 -71 -44 -14 -60 -5 -55 31 2
19 12 26 48 36 54 14 120 16 120 4z m658 -93 c32 -32 1 -89 -37 -68 -30 16
-45 48 -30 66 14 17 51 18 67 2z m-772 -33 c4 -8 3 -23 -1 -32 -6 -16 -8 -16
-26 6 -10 12 -16 27 -13 32 8 14 34 10 40 -6z m601 -1 c6 -17 -37 -64 -58 -64
-28 0 -24 35 8 60 27 21 44 22 50 4z m90 -90 c4 -11 -1 -22 -12 -30 -24 -18
-36 -18 -60 0 -16 12 -17 16 -6 30 18 21 70 21 78 0z m165 -9 c8 -19 8 -29 0
-37 -16 -16 -42 -2 -42 25 0 43 24 50 42 12z m-225 -81 c4 -11 -1 -22 -12 -30
-24 -18 -36 -18 -60 0 -16 12 -17 16 -6 30 18 21 70 21 78 0z m450 -30 c4 -11
-1 -22 -12 -30 -24 -18 -36 -18 -60 0 -16 12 -17 16 -6 30 18 21 70 21 78 0z
m-507 -89 c0 -20 -46 -30 -65 -15 -21 18 -9 30 31 30 23 0 34 -5 34 -15z m120
-9 c0 -20 -25 -37 -44 -30 -16 6 -16 8 0 25 20 22 44 25 44 5z m602 -23 c22
-25 51 -84 44 -90 -18 -18 -115 74 -102 96 11 17 41 13 58 -6z m-1648 -149
c33 -32 18 -73 -55 -150 -49 -52 -69 -101 -85 -204 -22 -150 -154 -299 -281
-319 l-48 -7 60 -13 c33 -7 65 -16 72 -20 7 -4 -36 -35 -103 -76 -63 -38 -122
-77 -131 -87 -44 -48 27 -20 167 66 77 48 119 57 140 31 18 -22 6 -41 -38 -64
-52 -27 -109 -87 -128 -137 -17 -44 -16 -52 25 -164 22 -59 28 -189 12 -233
-10 -25 -264 -321 -383 -445 -44 -46 -74 -70 -80 -64 -5 5 -9 69 -9 141 1 206
42 529 91 722 64 249 280 640 455 820 65 68 107 93 143 86 35 -7 72 9 72 30 0
9 -9 27 -21 39 l-21 22 21 21 c26 26 101 29 125 5z m116 -22 c0 -5 -9 -17 -20
-27 -23 -21 -45 -9 -34 18 6 17 54 24 54 9z m385 -74 c2 -7 6 -31 10 -52 4
-24 18 -51 36 -69 28 -27 34 -29 81 -24 55 7 68 2 136 -50 43 -33 50 -35 108
-31 48 3 72 11 110 35 103 67 147 86 215 91 58 4 70 2 105 -21 22 -15 62 -29
92 -33 65 -8 72 -20 72 -114 0 -79 15 -118 54 -144 34 -22 33 -42 -3 -60 -42
-22 -77 -69 -84 -113 -8 -50 -59 -121 -92 -129 -32 -8 -46 4 -97 81 -52 76
-88 115 -107 115 -15 0 -141 -125 -141 -140 0 -3 26 -8 58 -9 47 -1 81 -13
192 -66 74 -35 148 -69 164 -75 33 -12 31 -15 -32 -50 -89 -48 -115 -129 -61
-186 26 -28 51 -31 69 -9 11 13 8 19 -14 40 -28 26 -33 61 -13 89 9 12 27 18
61 18 68 2 80 -14 71 -92 -11 -97 -25 -105 -174 -100 -113 3 -304 70 -364 128
-28 27 -57 104 -57 152 0 14 -7 36 -16 48 -12 18 -25 22 -68 22 -38 0 -58 5
-67 16 -24 29 -13 95 30 191 40 87 51 133 32 133 -13 0 -52 -65 -109 -181 -86
-178 -178 -258 -278 -243 -54 8 -64 20 -25 29 37 8 81 41 81 61 0 9 -11 14
-34 14 -35 0 -47 -9 -125 -93 -21 -23 -50 -41 -75 -48 -23 -6 -96 -31 -163
-55 -150 -54 -191 -63 -271 -64 -45 0 -64 4 -68 14 -7 18 13 119 33 166 l14
35 25 -28 c28 -33 54 -30 54 7 0 15 -13 35 -35 55 -40 35 -43 47 -16 56 29 9
45 34 46 68 0 28 4 33 40 43 38 10 39 11 17 23 -42 23 -22 79 83 225 57 80
195 214 269 261 98 62 220 96 231 63z m385 -53 c0 -22 -60 -46 -83 -33 -18 9
-18 11 -1 29 22 24 84 27 84 4z m158 -8 c4 -22 -36 -38 -61 -25 -18 9 -18 10
-1 29 21 24 57 21 62 -4z m-1063 -27 c8 -13 -11 -47 -34 -60 -14 -7 -22 -6
-31 5 -9 11 -7 19 14 40 27 27 41 31 51 15z m965 -55 c7 -9 10 -18 7 -21 -12
-12 -81 -22 -116 -17 -91 14 -66 53 35 53 43 0 65 -5 74 -15z m685 -494 c-6
-52 -4 -63 16 -90 21 -28 21 -32 8 -68 -23 -58 -68 -55 -69 5 0 35 -14 26 -49
-29 -23 -37 -35 -49 -43 -41 -23 23 38 180 97 251 39 46 48 40 40 -28z m100 8
c13 -20 -4 -59 -26 -59 -25 0 -34 22 -19 49 12 23 35 28 45 10z m-1049 -153
c8 -21 -23 -74 -47 -81 -43 -14 -48 42 -7 78 24 21 47 22 54 3z m-979 -82 c-6
-86 -20 -113 -37 -70 -21 57 -4 146 28 146 12 0 14 -13 9 -76z m1133 56 c11
-11 20 -24 20 -30 0 -21 -41 -49 -91 -64 -71 -21 -95 -39 -130 -94 -46 -73
-41 -92 49 -181 42 -43 95 -86 117 -96 33 -15 271 -54 338 -55 38 0 12 -19
-100 -73 -264 -125 -300 -132 -593 -123 -323 10 -493 41 -548 99 -12 12 -28
42 -37 67 -17 47 -60 110 -76 110 -6 0 -7 -20 -3 -52 l7 -52 -29 21 c-57 39
-58 39 -50 3 9 -45 43 -80 77 -80 18 0 41 -12 64 -32 19 -18 67 -46 107 -63
125 -53 98 -74 -107 -85 -166 -9 -188 -18 -244 -93 -72 -96 -111 -200 -111
-294 0 -49 2 -55 33 -73 68 -42 140 -63 215 -63 64 0 72 -2 72 -20 0 -10 -9
-31 -19 -46 -11 -14 -45 -110 -76 -211 -32 -102 -70 -211 -86 -243 -88 -174
-259 -596 -259 -638 0 -35 22 -38 42 -6 8 12 25 54 38 92 25 77 155 386 196
468 48 94 81 133 131 157 68 31 93 57 93 95 0 94 56 249 88 243 20 -4 89 -131
97 -179 5 -27 1 -48 -13 -76 -28 -55 -83 -230 -89 -285 -5 -43 -4 -48 14 -48
37 0 127 54 147 88 10 19 39 100 63 180 53 177 110 309 174 407 60 92 78 105
138 98 65 -7 140 24 226 93 39 31 133 107 211 169 134 107 170 145 140 145
-19 0 -115 -64 -272 -182 -171 -129 -224 -160 -274 -162 -52 -1 -70 18 -128
138 -27 55 -70 128 -96 160 -25 33 -46 65 -46 72 0 10 89 13 398 16 399 3 442
7 442 40 0 10 -47 7 -135 -8 -18 -3 -38 1 -50 9 -16 13 -17 17 -6 31 7 9 20
16 28 16 16 0 94 33 296 126 166 77 195 81 232 27 14 -21 25 -52 25 -69 0 -40
-24 -64 -195 -197 -222 -173 -407 -365 -533 -553 -22 -33 -74 -121 -115 -195
-40 -74 -110 -191 -154 -260 -44 -70 -99 -172 -122 -227 -24 -56 -50 -107 -59
-114 -20 -17 -92 -170 -92 -196 0 -11 -18 -36 -40 -55 -46 -39 -48 -47 -19
-65 28 -18 22 -63 -11 -79 -33 -16 -37 -32 -49 -190 -24 -329 -24 -329 -6
-346 21 -21 110 -22 330 -2 212 19 395 19 440 1 59 -25 42 -57 -37 -69 -21 -3
-101 -35 -178 -72 -77 -36 -166 -75 -198 -86 -134 -46 -413 -70 -578 -49 -154
19 -241 58 -327 148 l-39 39 38 8 c56 10 94 33 94 55 0 31 -31 25 -130 -25
-151 -76 -264 -91 -325 -43 -23 18 -36 20 -97 16 -177 -13 -422 79 -530 200
-63 69 -78 110 -78 205 0 145 18 167 131 159 73 -5 70 -8 84 68 4 19 29 109
56 200 26 91 56 197 64 235 9 39 29 93 44 120 16 28 31 68 34 89 23 153 420
903 622 1176 77 104 128 197 149 272 9 31 21 60 26 63 6 4 54 -1 108 -11 143
-25 419 -26 487 0 83 31 149 81 216 167 67 86 94 109 147 127 19 6 55 34 81
62 51 55 79 62 111 30z m-910 -850 c20 -12 1 -51 -77 -155 -97 -130 -183 -205
-219 -191 -19 7 -18 74 2 122 57 137 227 267 294 224z m157 -6 c13 -34 -146
-219 -169 -196 -17 17 30 101 88 160 55 55 71 62 81 36z m73 -77 c0 -27 -53
-162 -115 -291 -47 -98 -97 -158 -116 -139 -26 26 92 291 188 421 28 38 43 41
43 9z m140 -149 c0 -32 -4 -58 -8 -58 -36 0 -60 101 -32 135 13 16 15 16 27
-1 7 -10 13 -44 13 -76z m-99 -84 c-16 -130 -53 -188 -59 -93 -3 52 19 160 45
216 l17 38 4 -38 c2 -21 -1 -77 -7 -123z m91 -49 c9 -19 7 -34 -6 -70 -27 -69
-36 -64 -36 19 0 61 3 76 15 76 9 0 20 -11 27 -25z m721 -840 c-3 -16 -58 -35
-73 -25 -12 7 -12 11 0 25 14 17 76 18 73 0z m275 -133 c4 -28 -24 -40 -45
-19 -14 13 -14 19 -3 32 18 22 44 15 48 -13z m-178 -310 c0 -5 -9 -17 -20 -27
-26 -23 -52 -6 -30 20 13 16 50 21 50 7z m-2566 -670 c18 -40 19 -112 1 -114
-18 -2 -35 46 -35 100 0 28 4 52 8 52 5 0 17 -17 26 -38z m2626 -60 c0 -11
-47 -53 -84 -76 -27 -17 -199 -75 -222 -76 -17 0 -25 29 -14 49 12 23 44 36
153 61 49 11 101 27 115 35 30 16 52 19 52 7z m-2460 -31 c20 -39 -22 -82 -60
-61 -22 12 -27 49 -8 68 18 18 56 14 68 -7z m2562 -36 c8 -19 8 -29 0 -37 -16
-16 -42 -2 -42 25 0 43 24 50 42 12z m-2132 -20 c14 -17 7 -45 -13 -45 -24 0
-51 26 -44 44 8 20 40 21 57 1z m2060 -3 c0 -24 -22 -43 -87 -76 -78 -39 -76
-48 9 -44 60 2 73 0 73 -12 0 -10 -19 -20 -55 -28 -30 -8 -69 -25 -87 -38
l-32 -24 -11 55 c-14 69 -8 90 33 105 73 29 95 42 100 61 7 26 57 27 57 1z
m-2339 -2 c25 -14 24 -46 -2 -61 -18 -9 -26 -7 -48 8 -14 11 -27 30 -29 42 -3
18 2 21 28 21 17 0 40 -5 51 -10z m2969 -5 c0 -20 -38 -57 -50 -50 -15 9 -12
26 7 47 20 22 43 24 43 3z m-3255 -25 c14 -15 16 -23 7 -32 -14 -14 -62 15
-62 37 0 22 34 18 55 -5z m883 -4 c4 -21 -14 -37 -35 -29 -14 5 -18 35 -6 47
12 12 38 1 41 -18z m-473 0 c13 -9 18 -25 17 -52 -1 -25 5 -45 17 -59 42 -46
28 -95 -28 -95 -86 0 -186 62 -179 111 5 34 35 35 70 2 29 -28 30 -28 44 -8
11 15 13 33 9 68 -6 42 -5 47 12 47 11 0 28 -6 38 -14z m1780 -3 c25 -24 36
-60 36 -120 1 -33 -5 -63 -15 -78 -18 -28 -62 -43 -78 -27 -6 6 -13 57 -16
113 -4 91 -3 104 13 116 25 17 40 17 60 -4z m-2025 -48 c5 -13 6 -32 3 -44
-13 -50 -113 -7 -113 49 0 34 13 40 63 27 25 -6 42 -18 47 -32z m1888 12 c4
-33 -13 -58 -33 -50 -21 7 -28 39 -15 63 16 29 44 21 48 -13z m627 -48 c-10
-32 -29 -6 -20 28 6 24 8 26 16 10 6 -10 7 -27 4 -38z m90 0 c-10 -32 -29 -6
-20 28 6 24 8 26 16 10 6 -10 7 -27 4 -38z m-837 8 c4 -34 -33 -56 -67 -38
-28 15 -27 25 6 51 34 27 57 22 61 -13z m-317 -3 c11 -14 10 -22 -9 -55 l-22
-39 27 -6 c53 -13 70 -47 37 -75 -24 -20 -95 -16 -111 7 -16 22 -17 109 -2
153 9 25 17 31 39 31 15 0 34 -7 41 -16z m175 -5 c16 -17 16 -22 4 -29 -19
-12 -61 -12 -79 -1 -11 7 -9 13 8 30 26 26 43 27 67 0z m584 4 c-5 -10 -18
-28 -27 -41 -15 -22 -15 -23 5 -29 12 -3 22 -11 22 -19 0 -18 -54 -46 -75 -38
-61 24 -10 144 62 144 20 0 22 -3 13 -17z m861 -88 c-3 -121 -23 -228 -60
-324 -36 -93 -36 -94 -15 -115 25 -26 79 -20 98 9 21 33 44 32 52 -2 6 -22 1
-32 -25 -55 -29 -26 -54 -33 -106 -29 -53 4 -66 13 -90 61 -38 76 -55 67 -55
-28 0 -45 -5 -83 -11 -89 -21 -21 -66 13 -115 85 -33 47 -44 59 -40 39 16 -70
18 -115 6 -122 -19 -12 -69 -8 -86 6 -8 6 -21 37 -30 68 -34 117 -50 95 -63
-81 -10 -149 -19 -178 -55 -178 -100 0 -31 397 121 707 l65 132 131 4 c73 2
165 3 206 3 l74 -1 -2 -90z m-2655 67 c15 -10 54 -74 54 -89 0 -38 -112 -14
-125 27 -13 42 36 85 71 62z m-570 -28 c16 -23 16 -27 1 -41 -22 -22 -47 -1
-47 38 0 37 23 38 46 3z m747 -9 c9 -8 17 -19 19 -25 2 -6 19 -2 43 10 28 15
50 19 75 15 110 -19 130 -43 130 -158 0 -84 -13 -107 -49 -88 -17 9 -21 23
-23 79 l-3 67 -116 5 c-86 4 -122 10 -142 23 -27 18 -44 58 -32 76 9 16 81 13
98 -4z m395 -18 c4 -36 -15 -62 -34 -46 -15 12 -19 61 -7 73 15 15 38 0 41
-27z m920 21 c20 -20 15 -75 -10 -92 -27 -19 -53 -7 -62 30 -13 50 39 95 72
62z m-758 -20 c125 -15 143 -20 160 -51 14 -26 14 -29 -5 -43 -26 -20 -134
-13 -171 11 -18 12 -36 15 -60 10 -30 -5 -35 -3 -44 20 -13 35 4 80 28 69 9
-4 51 -11 92 -16z m-1151 -13 c30 -15 45 -40 35 -56 -9 -15 -47 -10 -81 11
-67 40 -24 82 46 45z m1782 5 c29 -16 24 -56 -11 -81 l-29 -22 29 -33 c55 -64
46 -144 -17 -144 -28 0 -43 32 -43 92 0 23 -5 70 -11 105 -6 35 -9 70 -5 78 6
17 58 20 87 5z m-141 -35 c30 -36 -24 -84 -73 -66 -32 12 -39 34 -21 60 18 25
75 29 94 6z m-1768 -40 c16 -14 47 -28 69 -31 56 -9 104 -44 104 -74 0 -21 -4
-25 -27 -23 -16 1 -54 18 -86 38 -35 21 -65 33 -74 30 -27 -11 -58 13 -58 44
0 49 26 55 72 16z m296 13 c7 -7 12 -26 12 -42 0 -17 7 -53 15 -80 8 -26 13
-52 10 -56 -9 -14 -53 -20 -79 -10 -25 9 -26 12 -20 64 5 40 2 62 -10 86 -9
18 -16 37 -16 42 0 13 74 10 88 -4z m2289 -4 c3 -8 -2 -23 -11 -32 -15 -15
-17 -15 -32 0 -21 21 -11 48 16 48 11 0 23 -7 27 -16z m-2072 -30 c91 -9 95
-11 95 -49 0 -50 -28 -62 -83 -36 -23 11 -62 23 -87 27 -107 16 -126 80 -20
68 19 -2 62 -6 95 -10z m609 1 c9 -25 68 -44 188 -60 62 -9 124 -20 137 -26
18 -7 28 -6 42 7 14 13 32 15 79 12 72 -5 93 -20 59 -40 -18 -10 -74 -13 -221
-13 -190 0 -197 1 -228 23 -17 13 -33 22 -34 20 -2 -1 -9 -13 -15 -25 -12 -24
-45 -31 -56 -13 -9 14 -9 82 0 108 7 25 40 29 49 7z m1371 -8 c4 -13 5 -27 4
-33 -5 -27 3 -34 40 -34 22 0 43 -5 47 -12 12 -20 -32 -45 -145 -81 -60 -20
-144 -52 -186 -71 -43 -20 -91 -36 -106 -36 -25 0 -29 4 -29 29 0 35 40 71 77
71 34 0 92 29 104 51 12 23 -4 24 -99 8 -54 -10 -66 -9 -79 4 -18 18 -10 52
15 62 32 13 187 23 205 14 12 -7 17 -22 17 -48 0 -25 5 -41 15 -45 21 -8 35
24 35 78 0 48 15 65 57 66 15 0 24 -7 28 -23z m-1747 -19 c5 -7 13 -34 17 -60
8 -55 17 -65 71 -76 38 -8 39 -9 39 -54 0 -28 6 -53 17 -64 9 -11 18 -35 20
-54 2 -28 9 -38 36 -51 34 -16 52 -35 52 -57 0 -9 -14 -11 -55 -6 -46 6 -55 4
-55 -9 0 -18 12 -23 76 -33 27 -4 52 -11 55 -16 4 -6 3 -26 -2 -47 -8 -32 -6
-38 17 -57 37 -30 31 -78 -11 -82 -37 -5 -55 19 -55 74 0 52 -6 54 -155 54
-151 0 -157 -2 -153 -54 3 -35 0 -41 -17 -41 -14 0 -22 10 -28 35 -4 19 -12
51 -18 70 -14 55 5 63 122 56 82 -6 99 -4 113 10 9 9 15 24 12 33 -3 9 -8 57
-12 106 -3 50 -11 98 -16 108 -16 32 -33 13 -33 -38 0 -42 -4 -51 -24 -61
l-23 -12 26 -17 c14 -10 26 -23 26 -30 0 -16 -44 -45 -69 -45 -26 0 -31 18
-31 108 0 106 -11 123 -88 143 -71 18 -77 22 -69 43 5 12 19 14 76 9 61 -5 71
-3 77 11 4 11 -1 22 -15 32 -23 17 -28 53 -9 72 16 16 73 15 86 0z m1290 -13
c-3 -16 1 -30 13 -41 25 -22 24 -46 -1 -69 -18 -17 -22 -17 -36 -4 -34 34 -25
139 12 139 12 0 15 -7 12 -25z m-1198 -4 c14 -27 13 -66 -3 -80 -20 -16 -37 6
-37 49 0 52 20 68 40 31z m956 -12 c10 -18 -22 -42 -56 -42 -35 0 -55 20 -38
40 13 16 84 17 94 2z m-1772 -71 c21 -33 24 -73 6 -73 -16 0 -60 60 -60 81 0
22 38 16 54 -8z m453 10 c12 -15 45 -286 37 -299 -3 -5 -16 -9 -30 -9 -41 0
-160 30 -180 46 -19 14 -19 14 0 29 13 10 42 15 83 15 35 0 63 4 63 9 0 12
-66 37 -122 45 -52 8 -71 24 -66 58 4 32 33 34 69 4 37 -31 60 -33 84 -6 20
22 20 22 -12 39 -25 13 -31 49 -11 69 16 16 73 15 85 0z m1331 -41 c9 -47 -72
-79 -206 -81 -60 -1 -76 2 -86 16 -8 14 -7 22 10 38 15 15 43 23 109 31 50 6
92 13 95 15 2 3 20 4 40 2 24 -2 36 -8 38 -21z m-1621 -34 c13 -19 12 -24 -6
-42 -12 -12 -27 -18 -41 -14 -27 7 -54 48 -46 69 9 23 75 15 93 -13z m808 15
c40 -18 27 -68 -19 -68 -37 0 -72 51 -49 73 10 10 39 8 68 -5z m214 -22 c62
-33 20 -85 -58 -72 -53 8 -81 32 -81 68 l0 31 54 -6 c30 -3 68 -13 85 -21z
m256 -9 c28 -21 9 -37 -44 -37 -53 0 -94 -21 -70 -36 8 -5 72 -8 142 -6 142 3
167 -1 167 -28 0 -23 -20 -27 -165 -35 -205 -11 -255 -37 -145 -76 52 -18 56
-18 90 -2 44 21 222 25 242 5 27 -27 -14 -41 -182 -62 -187 -24 -232 -34 -250
-55 -30 -36 56 -33 364 15 231 36 228 36 224 -49 l-3 -56 -62 3 c-38 2 -85 -3
-119 -13 -52 -15 -94 -13 -94 4 0 4 -6 15 -13 26 -13 17 -16 16 -47 -19 -18
-20 -36 -36 -40 -36 -4 0 -13 14 -20 30 -19 45 -28 46 -64 4 -32 -37 -34 -38
-40 -16 -9 26 -11 26 -66 7 -52 -18 -136 -20 -142 -2 -3 6 -2 23 2 37 5 20 13
26 43 28 60 5 44 39 -36 75 -30 13 -38 22 -35 39 2 18 13 24 53 33 35 7 51 15
53 29 4 16 -3 18 -65 14 l-68 -3 0 35 0 35 95 5 c52 3 101 9 108 14 8 5 12 23
11 45 -2 20 0 42 5 49 10 17 147 16 171 -1z m613 -21 c2 -15 1 -39 -2 -51 -6
-22 -10 -23 -59 -18 -44 4 -55 2 -71 -16 -39 -43 -84 -11 -71 49 8 37 14 41
94 56 93 17 105 15 109 -20z m412 15 c11 -22 13 -80 4 -105 -9 -24 -45 -20
-51 5 -5 19 -11 21 -58 16 -53 -5 -105 -27 -171 -72 -45 -31 -94 -34 -94 -6 0
25 18 38 81 61 28 11 58 28 65 38 9 14 31 21 75 26 45 5 66 13 82 31 27 29 53
31 67 6z m96 4 c7 -17 -36 -96 -48 -89 -11 7 -10 61 2 85 13 22 38 25 46 4z
m-1972 -44 c37 -41 26 -191 -15 -199 -14 -2 -19 14 -29 97 -7 55 -9 104 -5
110 10 16 30 13 49 -8z m-564 -21 c25 -25 26 -46 2 -59 -14 -7 -25 -6 -40 5
-24 16 -30 59 -9 67 21 9 26 8 47 -13z m1748 8 c19 -19 14 -54 -10 -70 l-23
-15 33 -28 c37 -31 40 -48 11 -69 -47 -33 -99 29 -99 119 0 57 12 75 50 75 14
0 31 -5 38 -12z m-1580 -61 c17 -20 -3 -40 -39 -39 -35 1 -65 24 -55 41 10 15
81 14 94 -2z m1862 -32 c0 -22 -40 -44 -105 -56 -41 -7 -65 -8 -82 0 -32 15
-19 39 25 46 21 4 53 10 72 15 57 13 90 12 90 -5z m-1980 -58 c0 -17 -37 -39
-45 -26 -4 5 -4 16 -1 24 7 18 46 20 46 2z m132 -34 c24 -21 23 -40 -3 -48
-24 -8 -72 22 -77 49 -5 22 55 22 80 -1z m151 -15 c31 -16 16 -43 -26 -46 -42
-4 -67 11 -67 38 0 30 43 33 93 8z m1807 -13 c10 -30 9 -40 -4 -60 -9 -14 -20
-25 -25 -25 -10 0 -31 46 -31 70 0 59 42 70 60 15z m-1660 -9 c27 -29 21 -56
-13 -56 -53 0 -68 72 -16 79 3 1 16 -10 29 -23z m1461 -3 l10 -28 21 28 c11
15 25 27 32 27 19 0 49 -61 45 -90 -4 -22 -11 -26 -57 -32 -29 -5 -66 -15 -82
-23 -42 -21 -49 -19 -66 20 -30 73 -9 125 53 125 27 0 35 -5 44 -27z m-1862
-51 c14 -26 2 -62 -20 -62 -23 0 -53 44 -45 65 8 21 53 19 65 -3z m2606 -7 c0
-22 -31 -33 -47 -17 -17 17 -1 44 24 40 15 -2 23 -10 23 -23z m-2486 -23 c15
-28 2 -62 -22 -62 -38 0 -73 51 -50 73 14 14 63 7 72 -11z m163 -13 c28 -15
23 -57 -7 -65 -46 -11 -128 54 -95 76 16 11 73 5 102 -11z m137 -21 c10 -28
-3 -58 -26 -58 -35 0 -68 52 -46 73 3 4 19 7 35 7 21 0 31 -6 37 -22z m256
-25 c4 -10 11 -68 16 -129 10 -129 20 -164 49 -164 29 0 33 18 15 85 -20 80
-21 225 0 225 25 0 52 -123 70 -331 4 -39 14 -79 26 -98 19 -32 22 -33 77 -29
l57 3 3 -38 c3 -32 0 -38 -24 -47 -15 -6 -59 -10 -98 -8 l-71 3 -10 72 c-17
121 -45 109 -45 -19 0 -66 3 -81 21 -99 28 -28 23 -83 -9 -87 -18 -3 -26 5
-42 40 -23 53 -46 161 -60 288 -5 52 -21 135 -35 185 -25 89 -31 145 -18 158
14 15 71 7 78 -10z m1445 1 c22 -25 1 -66 -42 -82 -55 -21 -72 -11 -65 40 3
22 11 45 19 49 22 14 75 10 88 -7z m545 -24 c0 -28 -4 -36 -22 -38 -24 -4 -38
25 -28 59 5 14 14 19 28 17 18 -2 22 -10 22 -38z m-711 -16 c9 -8 16 -19 16
-23 0 -18 -40 -41 -86 -50 -85 -16 -128 4 -104 50 13 23 27 26 142 37 9 1 24
-5 32 -14z m-234 -24 c44 -44 22 -63 -102 -86 -157 -29 -160 -29 -175 -8 -10
14 -17 16 -31 8 -67 -42 -62 -41 -86 -11 l-23 28 -15 -23 c-13 -20 -24 -23
-76 -23 -69 1 -92 15 -92 56 0 25 4 28 43 33 23 3 132 7 241 10 162 4 202 8
215 20 22 23 77 20 101 -4z m-1525 0 c39 -6 91 -21 116 -34 l47 -24 11 24 c7
16 19 24 35 24 41 0 61 -46 45 -105 -11 -39 -31 -45 -62 -18 -14 14 -36 18
-90 18 l-70 0 -11 33 -12 33 -18 -20 c-27 -29 -70 -27 -90 4 -11 17 -26 25
-45 25 -16 0 -36 3 -45 6 -19 7 -21 30 -3 37 21 9 119 7 192 -3z m2387 -132
c3 -133 19 -164 28 -54 3 35 8 67 12 71 3 4 14 -8 24 -26 14 -28 16 -50 10
-137 l-6 -104 30 5 c18 4 32 2 37 -6 4 -7 10 -72 14 -145 7 -144 8 -149 70
-180 64 -32 62 -102 -2 -102 -36 0 -37 -10 -4 -38 14 -12 25 -29 25 -37 0 -8
-11 -67 -25 -131 -26 -120 -31 -184 -16 -184 10 0 20 29 65 181 30 101 52 135
83 125 12 -4 24 -13 26 -21 5 -11 -15 -127 -39 -233 -2 -13 -18 -36 -35 -51
-39 -36 -32 -52 40 -96 56 -33 81 -66 81 -105 0 -27 17 -33 42 -16 12 9 32 16
43 16 44 0 185 -112 185 -147 0 -7 -11 -19 -25 -25 -28 -13 -113 2 -267 46
-71 20 -88 22 -88 11 0 -22 37 -41 132 -68 162 -47 184 -67 153 -141 -9 -21
-14 -41 -11 -44 3 -3 26 14 51 37 70 64 125 55 125 -22 0 -37 1 -39 25 -33 45
11 104 -35 105 -82 0 -36 -59 -168 -90 -202 -15 -16 -35 -30 -43 -30 -9 0 -38
20 -66 43 -28 24 -97 68 -153 97 -57 29 -125 68 -153 85 -106 67 -180 167
-221 297 -25 81 -51 110 -105 117 -31 4 -47 12 -54 28 l-11 21 -21 -22 c-28
-29 -81 -45 -170 -53 -80 -6 -103 3 -103 42 0 13 8 33 19 46 16 21 22 22 45
11 15 -7 26 -20 26 -32 0 -11 5 -20 10 -20 6 0 10 5 10 10 0 6 19 20 43 30 54
25 165 27 209 4 52 -27 58 -8 58 190 0 295 -44 519 -142 726 -22 47 -43 101
-45 121 -9 66 38 349 57 349 5 0 11 -55 12 -122z m233 71 c-10 -32 -29 -6 -20
28 6 24 8 26 16 10 6 -10 7 -27 4 -38z m-2244 -4 c25 -57 22 -79 -12 -83 -47
-6 -83 55 -60 104 18 40 49 31 72 -21z m401 -24 c9 15 20 20 31 16 23 -8 23
-74 0 -99 -20 -22 -71 -24 -101 -2 -19 13 -22 24 -22 77 l0 61 38 -37 39 -38
15 22z m1281 20 c23 -22 33 -91 18 -120 -15 -28 -47 -27 -66 2 -17 27 -38 124
-29 139 8 13 55 1 77 -21z m505 -18 c4 -39 -8 -42 -50 -11 -29 20 -30 22 -12
35 32 23 59 12 62 -24z m-630 -23 c24 -36 30 -98 10 -118 -7 -7 -27 -12 -45
-12 -37 0 -42 8 -62 93 -15 64 -14 66 12 76 31 12 58 -1 85 -39z m-2068 -15
c10 -27 2 -91 -10 -78 -13 14 -32 82 -25 93 11 17 25 11 35 -15z m1918 -33 c4
-54 -21 -100 -44 -81 -8 6 -14 20 -14 31 0 17 -4 16 -30 -12 -28 -30 -32 -31
-53 -18 -33 23 -35 71 -3 103 23 23 33 26 84 23 l57 -3 3 -43z m-241 12 c24
-15 39 -54 30 -78 -8 -19 -73 -27 -235 -27 -144 -1 -192 10 -205 45 -12 31 23
41 152 44 106 3 129 7 150 23 27 22 67 19 108 -7z m-1549 0 c28 -19 28 -48 1
-75 -25 -25 -46 -12 -55 36 -10 54 11 70 54 39z m155 -31 c13 -13 36 -18 76
-18 51 0 56 -2 59 -23 7 -48 -51 -70 -91 -34 -13 12 -36 17 -76 17 -51 0 -56
2 -59 23 -7 48 51 70 91 35z m942 -23 c0 -41 -27 -53 -45 -21 -14 27 4 64 28
59 12 -2 17 -13 17 -38z m1504 -115 c25 -43 21 -68 -11 -63 -54 8 -82 136 -43
194 l20 29 6 -61 c3 -36 15 -77 28 -99z m-2194 55 c0 -28 -4 -35 -20 -35 -13
0 -21 8 -23 23 -5 34 5 54 25 50 13 -2 18 -13 18 -38z m363 -33 c-4 -41 -22
-44 -38 -7 -10 24 -10 33 0 45 19 23 42 -1 38 -38z m92 13 c0 -24 -10 -50 -20
-50 -4 0 -13 14 -20 30 -10 24 -10 33 0 45 15 18 40 3 40 -25z m1317 25 c25
-18 35 -51 18 -65 -6 -5 -52 -17 -101 -25 -49 -9 -99 -23 -111 -30 -55 -36
-117 5 -97 63 9 24 15 27 54 27 32 0 54 7 74 23 35 27 129 31 163 7z m-2194
-30 c41 -8 67 -36 67 -73 0 -34 -28 -39 -53 -9 -15 17 -34 27 -57 29 -38 3
-68 41 -57 72 6 15 9 15 35 2 15 -8 45 -17 65 -21z m1829 -63 c-2 -50 1 -70
18 -96 33 -55 22 -96 -26 -96 -32 0 -38 16 -36 87 3 74 -10 87 -57 54 -16 -12
-34 -21 -40 -21 -14 0 -51 59 -51 81 0 36 59 59 145 56 l50 -2 -3 -63z m-1650
26 c29 -31 29 -31 59 -14 36 21 56 16 99 -29 49 -50 35 -58 -93 -53 -122 4
-137 12 -137 73 0 66 24 74 72 23z m1021 -29 c21 -17 37 -39 37 -51 0 -19 -4
-20 -42 -14 -52 8 -90 34 -103 70 -19 55 39 52 108 -5z m400 10 c15 -16 27
-40 27 -54 0 -24 -3 -25 -60 -25 -52 0 -62 3 -75 24 -31 47 7 103 60 89 11 -2
32 -18 48 -34z m-183 2 c53 -39 33 -81 -38 -81 -49 0 -82 20 -82 50 0 10 -7
23 -15 30 -30 25 -16 33 48 26 36 -3 72 -14 87 -25z m-971 -25 c7 -8 11 -30 9
-48 -2 -25 -8 -33 -23 -33 -17 0 -20 8 -23 48 -3 49 12 63 37 33z m449 -8 c19
-19 12 -108 -8 -108 -14 0 -32 69 -26 96 7 27 16 30 34 12z m1335 -15 c24 -28
31 -67 13 -82 -42 -35 -92 20 -68 74 14 29 33 32 55 8z m-119 -39 c18 -17 19
-24 8 -40 -31 -47 -174 -53 -189 -9 -8 24 26 49 73 56 79 11 92 10 108 -7z
m-1031 -46 c11 -16 2 -68 -12 -68 -13 0 -32 51 -25 72 6 21 22 20 37 -4z
m-1038 -26 c14 34 123 51 160 24 20 -14 25 -70 8 -87 -14 -14 -144 17 -185 45
-18 12 -34 31 -36 41 -3 16 2 14 22 -10 21 -25 25 -27 31 -13z m1393 16 c44
-13 43 -44 -3 -64 -47 -19 -68 -18 -99 7 l-27 21 -24 -26 c-28 -30 -56 -33
-77 -8 -22 24 -31 59 -18 67 38 23 177 25 248 3z m287 12 c21 -8 26 -16 23
-38 -3 -26 -5 -27 -49 -24 -26 2 -50 -1 -54 -7 -10 -17 -91 -13 -109 5 -9 8
-16 19 -16 23 0 36 143 64 205 41z m-1347 -26 c47 -30 21 -74 -44 -74 -34 0
-47 5 -64 27 -24 31 -22 44 11 60 26 13 62 8 97 -13z m124 -85 c18 -120 17
-134 -12 -134 -22 0 -26 5 -32 45 -9 60 -10 175 -1 184 15 15 35 -25 45 -95z
m2165 59 c29 -32 35 -60 23 -94 -39 -101 -115 -19 -79 85 13 37 28 39 56 9z
m-1917 -16 c23 -11 35 -24 35 -37 0 -17 -8 -20 -47 -23 -52 -3 -88 20 -88 58
0 16 7 20 33 20 17 0 48 -8 67 -18z m1615 4 c11 -8 16 -19 12 -30 -9 -22 -78
-52 -139 -61 -54 -8 -68 6 -52 53 15 43 137 69 179 38z m-1455 -32 c0 -23 -4
-34 -12 -32 -33 11 -36 68 -3 68 11 0 15 -10 15 -36z m1214 10 c31 -31 13 -74
-31 -74 -16 0 -27 9 -35 26 -11 23 -10 29 11 45 28 23 35 23 55 3z m-108 -50
c13 -53 -56 -77 -78 -28 -11 23 -10 29 10 44 28 23 60 15 68 -16z m-256 -96
c19 -177 8 -275 -21 -201 -13 32 -25 283 -15 310 13 32 25 -7 36 -109z m116
97 c19 -29 11 -60 -18 -76 -37 -20 -62 36 -38 82 14 26 36 24 56 -6z m-390
-36 c13 -13 24 -28 24 -35 0 -44 -98 -61 -137 -24 -26 23 -40 79 -24 90 21 13
113 -8 137 -31z m-177 -3 c27 -44 28 -76 1 -76 -32 0 -60 36 -60 75 0 47 30
48 59 1z m331 14 c24 -24 24 -29 4 -58 -25 -36 -62 -29 -80 14 -8 20 -13 43
-10 50 8 21 63 17 86 -6z m-1396 -11 c19 -27 10 -51 -18 -47 -16 2 -22 11 -24
36 -4 38 18 44 42 11z m2536 -11 c28 -46 26 -68 -5 -68 -28 0 -45 25 -45 69 0
41 24 41 50 -1z m-2629 12 c15 0 10 -27 -7 -34 -27 -10 -44 -7 -51 10 -7 18
15 36 35 29 8 -3 18 -5 23 -5z m218 -1 c25 -9 31 -17 31 -39 0 -41 -56 -56
-92 -23 -25 22 -23 52 5 63 12 5 22 9 23 9 1 1 15 -4 33 -10z m252 -20 c25
-25 21 -53 -9 -57 -29 -4 -52 14 -52 43 0 41 28 47 61 14z m182 9 c10 -8 20
-39 26 -77 12 -75 27 -94 73 -95 28 -1 33 -5 33 -26 0 -20 -8 -28 -42 -39 -32
-12 -47 -12 -66 -4 -21 10 -26 21 -32 75 -8 70 -21 102 -37 92 -7 -4 -8 -31
-4 -78 7 -88 0 -101 -49 -93 -48 8 -126 47 -139 69 -15 26 3 39 65 47 l54 6 0
55 c0 30 4 61 8 68 5 6 27 12 51 12 23 0 50 -6 59 -12z m126 -12 c7 -8 11 -30
9 -48 -4 -42 -39 -47 -48 -8 -13 55 11 90 39 56z m1321 -11 c17 -20 5 -45 -20
-45 -11 0 -23 7 -26 15 -6 15 11 45 26 45 4 0 13 -7 20 -15z m187 -69 c-3 -31
-11 -54 -22 -62 -16 -12 -155 -31 -185 -25 -27 5 -37 34 -21 60 8 12 21 12 77
3 80 -13 89 -8 97 50 11 85 62 61 54 -26z m-1247 52 c36 -39 18 -67 -34 -54
-27 7 -38 35 -24 60 12 22 33 20 58 -6z m-102 -32 c-4 -25 -43 -34 -51 -12 -8
20 19 47 39 39 8 -3 14 -15 12 -27z m1037 20 c26 -19 13 -46 -23 -46 -48 0
-69 34 -29 50 30 12 31 12 52 -4z m774 -23 c19 -23 20 -29 8 -47 -8 -12 -24
-22 -35 -24 -16 -3 -23 4 -31 33 -5 20 -7 43 -4 51 8 22 40 16 62 -13z m-1011
-88 c5 -82 -3 -115 -27 -115 -39 0 -57 142 -25 189 15 21 18 21 32 7 10 -10
18 -39 20 -81z m131 79 c8 -8 -22 -34 -40 -34 -22 0 -33 16 -25 37 5 11 13 13
34 8 15 -4 29 -8 31 -11z m-1752 -29 c29 -20 19 -47 -15 -43 -33 4 -53 35 -32
48 20 13 22 13 47 -5z m1400 -9 c25 -24 18 -38 -27 -52 -66 -20 -94 12 -49 57
21 21 51 19 76 -5z m-1261 -9 c31 -27 27 -57 -8 -57 -27 0 -68 37 -68 62 0 26
43 23 76 -5z m116 1 c5 -40 -4 -89 -16 -85 -6 2 -17 15 -25 29 -13 23 -13 29
2 52 21 32 35 33 39 4z m2274 -23 c13 -54 -24 -85 -60 -49 -35 34 -5 105 35
84 10 -6 21 -21 25 -35z m-1312 15 c53 -20 18 -63 -61 -76 -35 -5 -43 -3 -52
15 -27 50 44 88 113 61z m-254 -30 c6 -12 10 -33 8 -48 -4 -37 -39 -37 -49 0
-15 56 17 93 41 48z m911 4 c11 -14 10 -19 -10 -35 -31 -26 -71 -25 -71 0 0
43 55 67 81 35z m-1051 -46 c0 -36 -27 -49 -46 -23 -15 20 -9 55 10 67 17 11
36 -12 36 -44z m919 38 c20 -23 10 -70 -15 -74 -21 -3 -54 21 -54 39 0 11 37
49 49 49 5 0 14 -6 20 -14z m871 -63 c0 -18 -39 -17 -46 2 -4 8 -3 22 0 31 6
15 8 15 26 -1 11 -10 20 -24 20 -32z m-1198 -6 c17 -28 -43 -74 -82 -62 -37
12 -34 60 4 75 25 11 68 3 78 -13z m-1462 -16 c0 -17 -4 -33 -10 -36 -6 -4
-10 8 -10 29 0 20 5 36 10 36 6 0 10 -13 10 -29z m97 7 c21 -20 24 -20 41 -5
28 25 47 21 82 -19 40 -46 30 -58 -46 -56 -91 2 -148 41 -130 88 8 20 26 17
53 -8z m1191 -41 c3 -47 2 -48 -20 -42 -64 20 -89 35 -86 52 4 22 46 44 78 41
22 -3 25 -8 28 -51z m909 33 c34 -20 53 -64 35 -82 -6 -6 -36 -19 -67 -30 -56
-18 -56 -18 -82 1 -19 16 -30 18 -43 11 -26 -14 -25 -15 -39 32 -13 41 -12 43
14 65 35 31 134 33 182 3z m-263 -6 c18 -18 21 -85 6 -115 -14 -26 -55 -24
-75 4 l-16 22 -34 -40 c-19 -22 -36 -37 -38 -35 -27 30 -35 98 -15 118 7 7 32
12 56 12 35 0 50 6 68 25 27 29 28 30 48 9z m-1489 -15 c134 -13 215 -28 215
-39 0 -24 -314 -24 -360 0 -20 11 -27 40 -13 54 4 4 17 5 28 2 11 -3 70 -11
130 -17z m695 -25 c0 -23 -4 -34 -12 -32 -33 11 -36 68 -3 68 11 0 15 -10 15
-36z m2010 5 c162 -82 246 -228 289 -504 21 -137 47 -233 88 -325 l24 -55 -48
-43 c-84 -76 -173 -140 -219 -158 -24 -9 -46 -25 -49 -35 -7 -20 -111 -75
-162 -85 -42 -8 -51 11 -28 60 18 38 43 51 75 41 23 -7 26 10 11 63 -5 17 -7
32 -5 32 3 0 22 -11 42 -25 60 -41 77 -33 42 20 -37 56 -21 97 34 88 24 -4 43
2 77 24 24 17 67 43 96 58 110 59 16 59 -166 0 -132 -43 -145 -41 -185 28 -27
46 -44 107 -30 107 5 0 26 -19 48 -42 52 -56 59 -33 17 51 -31 61 -40 114 -20
126 5 4 21 4 35 1 28 -7 63 -72 64 -117 0 -14 6 -34 14 -45 15 -19 15 -19 36
2 18 17 25 44 36 125 7 57 18 128 24 158 5 29 10 55 10 57 0 2 16 4 35 4 19 0
35 4 35 8 0 24 -98 149 -200 254 -115 120 -130 137 -130 151 0 16 50 5 110
-24z m-2107 -1 c11 -16 2 -68 -12 -68 -13 0 -34 58 -27 76 7 18 25 15 39 -8z
m649 -25 c32 -29 17 -103 -22 -103 -46 0 -62 86 -21 110 21 13 22 13 43 -7z
m982 -9 c32 -32 34 -99 4 -118 -14 -8 -24 -4 -53 24 -38 37 -44 64 -18 92 20
22 46 23 67 2z m-1100 -20 c27 -26 19 -51 -24 -75 -17 -9 -73 -15 -170 -17
-134 -4 -146 -3 -163 16 -30 33 -12 52 47 52 29 0 75 7 101 15 46 13 51 13 88
-8 30 -16 41 -19 44 -9 7 19 33 42 48 42 7 0 21 -7 29 -16z m1505 -23 c38 -38
56 -177 28 -215 -11 -14 -17 -15 -42 -6 -67 25 -86 76 -40 106 24 15 24 17 10
51 -22 51 -20 83 5 83 11 0 29 -9 39 -19z m-2864 -3 c28 -13 35 -52 9 -62 -25
-9 -83 -7 -105 4 -26 14 -24 44 4 58 30 14 61 14 92 0z m954 -14 c25 -32 27
-57 5 -75 -32 -27 -76 40 -53 83 13 25 24 23 48 -8z m-811 -38 c-4 -30 -42
-28 -46 2 -2 13 -1 30 2 39 6 14 9 14 27 -3 11 -10 19 -27 17 -38z m293 -29
c-15 -15 -161 -21 -193 -8 -30 11 -38 47 -16 69 17 17 90 15 116 -4 21 -14 26
-14 60 4 l37 19 3 -35 c2 -19 -1 -39 -7 -45z m95 52 c9 -16 -21 -43 -41 -36
-13 5 -14 11 -5 27 12 22 35 26 46 9z m184 -23 c0 -28 -24 -51 -45 -42 -13 5
-14 10 -4 28 22 43 49 50 49 14z m60 -11 c0 -13 -4 -27 -10 -30 -6 -4 -10 8
-10 30 0 22 4 34 10 30 6 -3 10 -17 10 -30z m1954 13 c18 -25 20 -83 7 -142
-12 -50 -27 -65 -45 -46 -25 27 -27 65 -5 91 17 20 20 32 15 72 -7 52 3 61 28
25z m-782 -35 c27 -26 28 -26 28 -5 0 31 16 36 40 12 40 -40 -17 -77 -125 -81
-68 -3 -83 0 -90 20 -10 34 5 52 41 49 21 -1 41 4 51 15 22 22 22 22 55 -10z
m650 13 c22 -16 39 -61 31 -82 -7 -19 -46 -12 -83 15 -44 32 -39 81 7 81 15 0
36 -6 45 -14z m-842 -15 c38 -72 -26 -145 -80 -91 -24 24 -26 57 -4 88 20 28
69 30 84 3z m-1896 -23 c30 -43 10 -104 -21 -63 -15 21 -18 85 -4 85 6 0 17
-10 25 -22z m1731 12 c23 -9 26 -15 23 -47 l-3 -38 -61 -5 c-34 -3 -68 -11
-77 -18 -9 -8 -21 -11 -27 -7 -15 9 -12 67 5 92 20 29 93 41 140 23z m835 -9
c18 -34 12 -109 -10 -131 -55 -55 -105 72 -52 133 20 23 49 22 62 -2z m568
-17 c28 -19 62 -85 62 -119 0 -35 -35 -68 -63 -59 -33 10 -45 22 -58 61 -12
38 -7 97 12 119 15 18 19 18 47 -2z m-1633 -14 c17 -14 20 -57 6 -79 -12 -18
-41 -7 -48 19 -7 25 -8 25 -47 -5 -42 -32 -71 -32 -92 0 -19 29 -11 63 19 76
29 12 143 5 162 -11z m-1335 1 c15 -4 26 -15 28 -28 2 -16 -4 -22 -26 -26 -33
-7 -98 8 -108 24 -20 33 36 49 106 30z m118 -33 c2 -15 -1 -35 -6 -44 -8 -15
-11 -14 -27 9 -10 16 -14 34 -10 47 9 30 39 21 43 -12z m120 -17 c-2 -28 -7
-36 -23 -36 -15 0 -21 8 -23 34 -4 35 11 53 35 44 9 -4 13 -18 11 -42z m207
14 c0 -34 -30 -58 -45 -35 -17 26 9 75 35 67 6 -2 10 -16 10 -32z m-105 10
c19 -23 8 -50 -20 -50 -16 0 -26 6 -28 18 -4 18 14 47 28 47 4 0 13 -7 20 -15z
m764 -7 c20 -32 -4 -52 -70 -59 -32 -4 -68 -10 -80 -13 -22 -8 -37 5 -49 42
-5 19 -1 25 27 37 47 21 157 16 172 -7z m-326 -26 c4 -26 -22 -40 -43 -22 -11
9 -12 17 -4 32 13 25 43 19 47 -10z m1764 1 c26 -23 25 -106 -2 -133 -22 -22
-29 -24 -48 -12 -28 18 -43 127 -20 150 17 17 48 15 70 -5z m-548 -9 c22 -8
20 -37 -3 -58 -33 -30 -54 1 -31 45 12 21 12 21 34 13z m-84 -54 c0 -22 -19
-30 -69 -30 -47 0 -82 23 -63 41 16 17 103 28 120 16 6 -5 12 -17 12 -27z
m-189 20 c21 -12 25 -50 7 -68 -18 -18 -63 -14 -82 7 -20 22 -13 44 17 59 29
14 35 14 58 2z m-1053 -25 c16 -34 15 -50 -2 -64 -20 -17 -38 18 -30 58 8 38
17 39 32 6z m922 -23 c0 -58 -7 -68 -32 -45 -22 20 -23 42 -2 71 24 34 34 26
34 -26z m1229 23 c16 -14 31 -36 33 -48 3 -19 8 -22 40 -19 46 4 73 -10 93
-48 19 -37 19 -70 -1 -98 -24 -34 -50 -27 -80 21 -15 23 -58 74 -95 113 -38
40 -69 79 -69 88 0 25 44 20 79 -9z m-2880 -17 c8 -24 3 -68 -9 -68 -12 0 -33
58 -26 75 8 22 25 18 35 -7z m419 -32 c-2 -23 -8 -31 -23 -31 -15 0 -21 8 -23
34 -4 37 14 57 36 39 7 -6 12 -25 10 -42z m431 17 c41 -38 53 -63 153 -312 16
-41 31 -94 33 -118 2 -24 13 -55 24 -70 25 -31 27 -85 5 -104 -11 -9 -74 -15
-207 -21 -106 -4 -214 -12 -240 -18 -56 -12 -67 -8 -67 23 0 40 27 65 85 78
30 7 61 19 68 28 8 9 19 45 25 81 8 42 22 80 42 108 16 23 30 45 30 48 0 3
-10 14 -22 23 -31 25 -30 102 1 135 21 22 22 30 16 90 -5 42 -4 66 3 66 5 0
28 -17 51 -37z m314 19 c9 -10 20 -32 23 -49 5 -25 2 -33 -14 -42 -22 -12 -91
-15 -116 -5 -26 10 -38 41 -26 64 14 27 26 25 55 -6 24 -26 25 -26 25 -5 0 26
17 61 29 61 4 0 15 -8 24 -18z m139 1 c32 -29 17 -103 -22 -103 -21 0 -50 35
-50 62 0 17 33 58 47 58 3 0 15 -7 25 -17z m119 7 c37 -20 13 -109 -25 -94
-25 10 -46 80 -29 97 9 10 31 9 54 -3z m128 -4 c18 -22 10 -70 -12 -74 -25 -5
-57 26 -50 46 6 18 32 42 44 42 3 0 12 -6 18 -14z m1187 -11 c32 -48 -8 -135
-55 -120 -36 11 -39 70 -5 123 19 29 40 28 60 -3z m-2646 -31 c0 -36 -8 -42
-28 -22 -15 15 -15 41 0 56 17 17 28 5 28 -34z m114 40 c21 -8 20 -51 -1 -62
-27 -14 -43 -3 -43 27 0 39 11 48 44 35z m306 -40 c0 -36 -8 -42 -28 -22 -15
15 -15 41 0 56 17 17 28 5 28 -34z m-192 20 c5 -9 7 -36 4 -60 -3 -30 0 -51
12 -68 22 -35 20 -46 -9 -46 -14 0 -29 8 -35 21 -12 21 -16 142 -5 159 9 15
23 12 33 -6z m2524 -81 c27 -24 24 -87 -4 -107 -29 -20 -34 -20 -58 4 -22 22
-26 70 -10 101 13 23 47 25 72 2z m-2727 -33 c0 -29 -32 -41 -41 -16 -9 24 4
48 23 44 12 -2 18 -12 18 -28z m1558 8 c13 -20 0 -68 -18 -68 -24 0 -39 43
-25 69 12 24 28 24 43 -1z m-1453 -3 c19 -23 8 -50 -20 -50 -16 0 -26 6 -28
18 -4 18 14 47 28 47 4 0 13 -7 20 -15z m1360 -38 c12 -21 12 -28 1 -41 -19
-23 -57 -20 -76 7 l-16 22 -32 -38 c-18 -20 -35 -37 -38 -37 -4 0 -14 19 -23
42 -16 38 -16 43 -1 57 17 17 117 31 150 20 11 -3 27 -18 35 -32z m-1052 -22
c-4 -26 -34 -32 -40 -8 -3 10 -1 30 4 43 9 25 10 25 24 5 8 -11 13 -29 12 -40z
m-80 -9 c-2 -12 -11 -22 -21 -24 -22 -4 -38 36 -25 61 9 18 10 18 29 1 11 -10
19 -27 17 -38z m878 19 c16 -16 24 -34 22 -48 -3 -19 -10 -23 -68 -28 -36 -3
-72 -9 -81 -13 -17 -7 -26 -1 -53 39 -14 19 -15 19 -50 3 -35 -17 -36 -17 -47
4 -17 32 8 45 99 53 43 3 86 7 97 9 46 7 57 5 81 -19z m792 -47 c17 -17 15
-45 -4 -52 -30 -11 -82 -6 -95 10 -28 34 67 74 99 42z m-2003 -8 c8 -13 -13
-40 -31 -40 -14 0 -19 31 -7 43 10 10 31 8 38 -3z m113 1 c8 -5 12 -17 10 -27
-2 -14 -12 -19 -38 -19 -26 0 -36 5 -38 19 -4 20 13 36 38 36 8 0 21 -4 28 -9z
m1576 -23 c8 -13 6 -22 -8 -37 -29 -32 -64 -3 -50 41 7 23 42 21 58 -4z m171
12 c3 -6 3 -19 0 -30 -8 -25 -71 -28 -101 -5 -19 15 -19 15 0 30 22 17 92 20
101 5z m825 -28 c11 -13 20 -33 20 -44 0 -27 -18 -58 -34 -58 -22 0 -76 68
-76 95 0 48 55 52 90 7z m-2445 -12 c0 -29 -32 -41 -41 -16 -9 24 4 48 23 44
12 -2 18 -12 18 -28z m1219 -27 c-25 -40 -52 -17 -39 34 l6 26 22 -22 c17 -16
19 -25 11 -38z m101 27 c0 -18 -6 -26 -21 -28 -26 -4 -40 24 -23 45 18 21 44
11 44 -17z m-1227 -34 c-2 -12 -11 -22 -21 -24 -22 -4 -38 36 -25 61 9 18 10
18 29 1 11 -10 19 -27 17 -38z m-453 4 c0 -16 -6 -26 -18 -28 -19 -4 -32 20
-23 44 9 25 41 13 41 -16z m1344 16 c7 -8 11 -27 9 -42 -3 -24 -10 -30 -53
-41 -72 -18 -92 -16 -111 12 -24 37 -10 47 52 39 43 -5 54 -3 54 8 0 15 19 38
31 38 4 0 12 -6 18 -14z m129 -12 c3 -21 -21 -54 -38 -54 -15 0 -21 39 -10 60
14 26 44 22 48 -6z m-1353 -34 c0 -29 -32 -41 -41 -16 -9 24 4 48 23 44 12 -2
18 -12 18 -28z m113 -9 c8 -5 12 -17 10 -27 -2 -14 -12 -19 -38 -19 -26 0 -36
5 -38 19 -4 20 13 36 38 36 8 0 21 -4 28 -9z m128 -38 c8 -28 -8 -48 -30 -40
-16 6 -23 57 -10 70 11 11 34 -5 40 -30z m812 -17 c-4 -31 -36 -32 -49 -2 -9
20 -9 29 1 41 12 14 15 14 32 -2 10 -9 18 -26 16 -37z m638 29 c15 -23 15 -27
0 -50 -35 -53 -84 -9 -57 51 14 31 36 31 57 -1z m273 14 c28 -6 61 -19 73 -30
23 -19 23 -19 4 -34 -24 -18 -83 -20 -89 -2 -3 9 -17 9 -65 -4 -67 -17 -82
-12 -82 27 0 45 10 54 61 54 26 0 71 -5 98 -11z m-385 -25 c11 -28 -39 -86
-58 -67 -10 11 -7 58 6 71 17 17 45 15 52 -4z m-1244 -23 c0 -17 -4 -33 -10
-36 -6 -4 -10 8 -10 29 0 20 5 36 10 36 6 0 10 -13 10 -29z m94 -7 c19 -19 21
-44 3 -44 -21 0 -35 20 -30 41 6 23 7 23 27 3z m1039 -6 c13 -20 0 -68 -18
-68 -24 0 -39 43 -25 69 12 24 28 24 43 -1z m-113 -36 c0 -54 -7 -67 -27 -51
-16 14 -17 40 -1 74 17 39 28 30 28 -23z m-92 -9 c4 -37 -20 -62 -43 -43 -8 7
-15 22 -15 34 0 18 -3 16 -20 -11 -20 -34 -47 -42 -68 -21 -21 21 -13 36 31
52 87 32 111 30 115 -11z m423 -44 c22 -22 21 -37 -3 -53 -21 -13 -48 8 -48
39 0 40 19 46 51 14z m-91 -9 c0 -23 -22 -35 -46 -26 -15 6 -15 8 1 26 23 26
45 26 45 0z m605 -60 c66 -44 135 -85 154 -91 19 -7 60 -27 90 -45 109 -64
113 -60 -60 -75 l-154 -13 170 -12 c174 -12 209 -18 202 -37 -5 -15 -44 -24
-172 -41 -60 -9 -144 -20 -185 -27 -105 -16 -172 12 -104 43 23 11 24 13 7 19
-10 4 -34 8 -53 8 -52 1 -82 26 -78 64 4 44 35 57 143 57 92 0 139 12 93 23
-12 3 -59 9 -102 13 -94 8 -121 27 -113 77 3 18 9 51 12 75 4 23 12 42 18 42
7 0 66 -36 132 -80z m-727 32 c4 -28 -24 -40 -45 -19 -14 13 -14 19 -3 32 18
22 44 15 48 -13z m382 9 c11 -22 14 -114 3 -124 -11 -12 -42 24 -48 57 -7 34
8 86 24 86 6 0 15 -9 21 -19z m-765 -102 c17 -31 14 -59 -4 -59 -17 0 -32 38
-25 65 8 32 10 31 29 -6z m403 19 c33 -33 -9 -115 -46 -92 -9 6 -21 23 -26 37
-16 45 40 87 72 55z m180 0 c14 -14 17 -78 4 -78 -11 0 -32 46 -32 70 0 23 10
26 28 8z m-302 -23 c15 -23 15 -27 0 -50 -9 -14 -21 -25 -26 -25 -5 0 -12 11
-16 25 -7 30 2 75 16 75 5 0 17 -11 26 -25z m234 -2 c21 -27 22 -44 3 -50 -17
-6 -53 34 -53 57 0 28 25 25 50 -7z m-1610 -8 c0 -2 -14 -12 -31 -21 -38 -19
-179 -32 -179 -16 0 6 17 14 38 18 20 3 53 10 72 14 40 9 100 12 100 5z m865
-43 c71 -13 21 -23 -143 -29 -151 -6 -320 2 -308 15 17 17 373 28 451 14z
m-906 -48 c2 -2 -22 -4 -55 -3 -43 1 -52 3 -34 9 22 6 79 3 89 -6z"/>
<path d="M10828 9499 c-26 -15 -23 -41 5 -37 14 2 23 11 25 26 4 24 -4 27 -30
11z"/>
<path d="M11174 9476 c-9 -24 4 -48 23 -44 12 2 18 12 18 28 0 29 -32 41 -41
16z"/>
<path d="M11990 9464 c0 -17 24 -46 50 -59 56 -29 65 -15 24 34 -16 19 -35 31
-50 31 -13 0 -24 -3 -24 -6z"/>
<path d="M2975 9340 c-16 -18 -16 -20 -1 -26 24 -9 46 3 46 26 0 26 -22 26
-45 0z"/>
<path d="M2557 9303 c-13 -12 -7 -50 9 -64 13 -10 17 -10 25 2 23 36 -7 90
-34 62z"/>
<path d="M2347 9258 c-30 -47 -32 -75 -4 -92 15 -9 21 -7 33 8 15 21 20 126 6
126 -4 0 -20 -19 -35 -42z"/>
<path d="M5866 9195 c-21 -31 -18 -79 5 -83 28 -5 50 27 47 67 -4 45 -28 52
-52 16z"/>
<path d="M7822 9208 c-15 -15 -16 -54 -1 -63 16 -10 50 26 47 49 -4 24 -28 32
-46 14z"/>
<path d="M10247 9213 c-8 -8 -9 -43 -1 -43 16 0 44 23 44 35 0 15 -31 21 -43
8z"/>
<path d="M8305 9190 c-16 -18 -16 -20 -1 -26 19 -7 46 12 46 32 0 20 -24 17
-45 -6z"/>
<path d="M7994 9175 c-4 -9 0 -23 9 -32 21 -21 49 -9 45 19 -4 28 -45 38 -54
13z"/>
<path d="M2100 9145 c-11 -13 -11 -19 3 -32 21 -21 49 -9 45 19 -4 28 -30 35
-48 13z"/>
<path d="M7585 9100 c-16 -18 -16 -20 -1 -26 24 -9 46 3 46 26 0 26 -22 26
-45 0z"/>
<path d="M5430 9090 c0 -18 20 -50 31 -50 18 0 5 55 -13 58 -10 2 -18 -2 -18
-8z"/>
<path d="M6320 9055 c-11 -13 -11 -19 3 -32 21 -21 49 -9 45 19 -4 28 -30 35
-48 13z"/>
<path d="M2350 9022 c0 -25 25 -35 50 -19 27 16 20 31 -18 35 -26 3 -32 0 -32
-16z"/>
<path d="M2516 9024 c-9 -22 17 -49 39 -40 10 3 15 15 13 28 -4 29 -42 37 -52
12z"/>
<path d="M2735 9015 c-5 -2 -22 -6 -37 -9 -16 -4 -28 -13 -28 -21 0 -8 12 -17
28 -21 15 -3 34 -8 42 -10 8 -3 119 -9 247 -14 225 -8 343 -5 343 10 0 4 -26
13 -58 19 -106 21 -511 56 -537 46z"/>
<path d="M2220 8965 c-11 -13 -11 -19 3 -32 21 -21 49 -9 45 19 -4 28 -30 35
-48 13z"/>
<path d="M9865 8956 c-16 -12 -18 -17 -7 -28 15 -15 47 0 47 22 0 20 -18 22
-40 6z"/>
<path d="M9290 8907 c0 -8 8 -22 19 -31 17 -16 19 -16 25 0 7 19 -10 44 -30
44 -8 0 -14 -6 -14 -13z"/>
<path d="M5847 8853 c-14 -14 -6 -33 14 -33 25 0 59 17 59 30 0 11 -63 14 -73
3z"/>
<path d="M3927 8823 c-13 -12 -7 -41 10 -47 21 -9 46 16 37 37 -6 17 -35 23
-47 10z"/>
<path d="M6330 8805 c-10 -12 -10 -19 -2 -27 16 -16 42 -2 42 22 0 24 -22 26
-40 5z"/>
<path d="M6770 7454 c-118 -31 -235 -105 -228 -142 3 -13 17 -18 65 -20 81 -4
295 31 336 55 43 25 56 63 33 97 -15 24 -22 26 -84 25 -37 0 -92 -7 -122 -15z"/>
<path d="M7527 7402 c-10 -10 -17 -27 -17 -37 0 -57 192 -159 263 -139 48 14
49 51 2 103 -71 79 -207 119 -248 73z"/>
<path d="M6709 7210 c-24 -17 -71 -55 -104 -86 l-60 -56 144 6 c80 3 149 10
154 15 6 6 3 26 -6 53 -9 23 -18 55 -21 71 -9 37 -49 36 -107 -3z"/>
<path d="M6378 6988 c-9 -23 3 -38 28 -38 19 0 24 5 24 25 0 20 -5 25 -24 25
-13 0 -26 -6 -28 -12z"/>
<path d="M6947 6395 c-9 -23 3 -45 24 -45 24 0 24 22 0 44 -16 15 -19 15 -24
1z"/>
<path d="M6557 6304 c-13 -14 14 -42 61 -62 58 -25 154 -42 240 -42 68 0 80
12 28 30 -18 6 -51 26 -74 45 -42 36 -52 33 -52 -16 0 -26 -7 -24 -91 16 -72
34 -99 41 -112 29z"/>
<path d="M7106 6245 c-22 -8 -46 -21 -55 -29 -14 -15 -11 -16 26 -16 48 0 93
17 93 36 0 19 -23 23 -64 9z"/>
<path d="M6184 4965 c-18 -28 -21 -110 -4 -130 25 -30 90 43 90 102 0 55 -56
74 -86 28z"/>
<path d="M6008 4589 c-26 -15 -71 -97 -64 -115 10 -26 82 -12 117 22 60 57 16
134 -53 93z"/>
<path d="M7963 3304 c-9 -25 10 -36 35 -18 12 8 22 19 22 25 0 16 -50 10 -57
-7z"/>
<path d="M7843 3274 c-3 -8 2 -23 11 -32 15 -15 17 -15 32 0 21 21 11 48 -16
48 -11 0 -23 -7 -27 -16z"/>
<path d="M7896 3179 c-29 -23 -35 -49 -11 -49 18 0 65 43 65 60 0 16 -25 12
-54 -11z"/>
<path d="M8023 3184 c-9 -25 10 -36 35 -18 12 8 22 19 22 25 0 16 -50 10 -57
-7z"/>
<path d="M8170 769 c0 -20 217 -135 241 -127 12 4 -72 63 -141 98 -56 29 -100
41 -100 29z"/>
<path d="M10741 7651 c-89 -89 -275 -1083 -341 -1828 -13 -135 -9 -474 4 -505
13 -28 25 -21 45 25 31 71 32 71 239 76 l185 3 -46 -54 c-56 -66 -77 -112 -77
-173 0 -57 21 -100 60 -120 59 -30 107 -13 138 51 36 73 57 71 210 -26 90 -57
162 -44 220 40 42 62 22 156 -44 207 -41 31 -36 43 14 38 310 -29 401 -13 445
78 10 20 34 121 53 224 55 301 96 460 259 1005 100 333 202 585 269 665 14 17
26 33 26 36 0 25 -276 73 -692 122 -387 45 -510 65 -702 115 -176 45 -236 50
-265 21z m159 -61 c74 -10 169 -28 210 -40 187 -51 239 -59 440 -70 229 -13
430 -39 475 -62 17 -9 64 -19 105 -22 41 -4 88 -12 103 -18 26 -10 28 -14 22
-47 -3 -20 -37 -128 -75 -241 -140 -419 -347 -1137 -376 -1304 -28 -168 -45
-235 -72 -288 -39 -77 -57 -83 -210 -69 -118 11 -174 26 -223 62 -13 10 -25 8
-61 -9 -34 -17 -63 -22 -124 -22 -100 0 -151 14 -190 52 -36 33 -67 34 -72 2
-4 -30 -56 -35 -258 -27 -120 4 -164 9 -164 18 0 76 24 407 40 540 72 626 78
665 145 996 74 357 127 569 143 569 4 0 68 -9 142 -20z m300 -2218 c120 -60
167 -142 126 -221 -19 -36 -81 -70 -97 -54 -9 9 -2 22 30 54 23 23 40 44 37
46 -2 2 -30 0 -62 -6 -84 -16 -91 -14 -131 24 -20 19 -41 35 -48 35 -7 0 -38
-9 -70 -20 -77 -27 -89 -25 -119 11 l-26 31 0 -35 c0 -20 10 -49 25 -71 14
-20 25 -39 25 -41 0 -3 -13 -5 -29 -5 -39 0 -71 40 -71 90 0 24 10 52 29 81
55 83 124 117 236 118 62 1 79 -3 145 -37z"/>
<path d="M10934 7474 c-12 -3 -29 -13 -37 -22 -20 -22 -36 -109 -19 -98 7 4
12 13 12 20 0 7 12 23 26 37 25 23 31 24 172 23 l147 -1 -60 19 c-59 19 -199
31 -241 22z"/>
<path d="M10908 7285 l-67 -70 -40 23 c-49 27 -57 27 -71 3 -24 -46 34 -82
101 -62 67 20 156 116 147 158 -3 14 -20 1 -70 -52z"/>
<path d="M11299 7286 c-37 -26 -60 -66 -56 -101 1 -11 -5 -21 -15 -23 -13 -3
-18 3 -18 22 0 14 -8 29 -17 35 -10 5 -22 24 -28 43 -10 29 -16 33 -51 36 -73
5 -166 -90 -150 -153 9 -35 40 -40 88 -13 58 32 63 52 9 43 -34 -6 -41 -4 -41
9 0 9 9 25 21 37 18 18 23 19 42 6 12 -8 29 -33 37 -56 9 -22 21 -46 28 -53 6
-6 57 -17 112 -23 75 -10 104 -17 114 -30 11 -16 24 -17 94 -13 44 4 86 9 93
13 23 15 -9 175 -35 175 -6 0 -47 -22 -91 -50 -119 -75 -144 -67 -95 29 16 33
30 67 30 76 0 22 -30 18 -71 -9z m191 -134 c0 -23 -19 -42 -42 -42 -22 0 -23
9 -2 38 18 27 44 29 44 4z"/>
<path d="M11644 7155 c-9 -13 -20 -40 -24 -59 -9 -41 0 -53 49 -62 41 -8 38
-31 -8 -59 -99 -60 -128 -115 -61 -115 40 0 86 23 130 66 19 18 53 40 75 47
28 10 40 20 40 33 0 16 -6 19 -37 16 -45 -3 -48 9 -18 69 12 22 18 44 15 48
-3 5 -21 5 -42 0 -21 -5 -48 -9 -61 -9 -19 0 -21 4 -16 25 8 34 -20 34 -42 0z"/>
<path d="M10940 6951 c-70 -38 -88 -85 -40 -111 17 -9 20 -5 27 32 6 31 16 46
34 55 52 25 182 -30 195 -83 9 -34 -6 -46 -52 -42 -38 3 -39 3 -37 42 l3 38
-33 -26 c-124 -103 -259 -169 -331 -164 -35 3 -41 0 -41 -17 0 -18 7 -20 60
-20 50 0 75 7 150 44 83 40 97 43 175 45 98 1 131 16 157 70 30 63 -4 115 -91
141 -66 20 -133 18 -176 -4z"/>
<path d="M10994 6639 c-57 -36 -144 -118 -144 -136 0 -7 9 -17 19 -23 24 -12
111 -13 130 -1 21 14 5 41 -29 47 -16 4 -30 10 -30 14 0 5 27 31 60 60 56 48
72 70 52 70 -4 0 -30 -14 -58 -31z"/>
<path d="M11118 6555 c5 -31 -18 -59 -71 -87 -21 -10 -41 -26 -44 -35 -10 -25
35 -57 129 -93 116 -45 158 -67 198 -105 38 -36 81 -51 180 -61 67 -6 150 8
150 27 0 14 -46 29 -93 29 -70 0 -74 8 -44 89 26 69 26 71 7 81 -25 13 -88 -2
-146 -36 -43 -25 -79 -30 -104 -14 -19 12 -6 24 43 40 21 7 41 19 44 27 9 24
-45 70 -138 118 -102 53 -118 55 -111 20z m103 -95 c10 0 28 -9 40 -21 31 -31
11 -43 -71 -43 -52 -1 -73 3 -86 16 -14 14 -15 20 -5 32 12 15 64 26 89 19 8
-1 22 -3 33 -3z m239 -145 c0 -8 -9 -24 -20 -35 -22 -22 -50 -27 -50 -8 0 16
41 58 57 58 7 0 13 -7 13 -15z"/>
<path d="M2655 7229 c-99 -10 -225 -25 -280 -33 -159 -24 -246 -34 -480 -56
-253 -24 -275 -27 -275 -44 0 -7 24 -64 53 -127 100 -211 111 -253 167 -594
40 -249 70 -449 105 -720 20 -154 39 -282 41 -284 3 -3 52 7 110 22 57 14 111
24 119 20 19 -7 19 -27 1 -96 -16 -62 -11 -103 17 -134 47 -52 126 -35 252 52
43 30 84 55 90 55 6 0 24 -14 40 -30 16 -17 50 -44 76 -60 125 -81 268 17 204
140 -9 16 -18 50 -21 75 -6 41 -5 45 20 54 16 7 51 7 96 2 38 -5 79 -7 90 -4
20 5 43 56 60 134 30 140 40 763 13 790 -20 20 -26 -43 -43 -461 -12 -287 -28
-348 -101 -386 -35 -18 -188 -39 -222 -30 -26 6 -27 9 -27 71 0 65 -7 79 -33
69 -16 -6 -30 -36 -46 -100 -14 -52 -32 -60 -149 -69 -115 -9 -136 1 -146 71
-3 26 -14 56 -23 66 -32 36 -113 13 -113 -33 0 -12 12 -15 48 -15 41 1 47 -2
50 -20 5 -32 -38 -60 -119 -79 -128 -29 -154 -30 -175 -7 -32 34 -37 62 -124
632 -72 473 -124 727 -176 858 -29 72 -28 102 4 118 13 6 96 15 185 18 89 4
243 18 342 31 99 13 266 33 370 44 105 11 211 23 236 27 44 6 47 5 67 -27 36
-60 63 -139 118 -354 51 -201 54 -206 48 -130 -17 250 -73 483 -131 547 -21
23 -92 23 -338 -3z m-131 -1795 c20 -20 20 -63 1 -91 -19 -27 -87 -47 -129
-39 -36 8 -76 43 -76 67 0 22 39 44 112 63 69 19 74 19 92 0z m231 2 c74 -31
65 -103 -15 -127 -33 -10 -43 -9 -65 5 -50 33 -84 117 -52 129 25 11 99 6 132
-7z m-394 -172 c32 -16 38 -38 13 -48 -51 -20 -124 10 -124 51 0 24 2 25 41
19 23 -4 54 -13 70 -22z m499 17 c0 -11 -58 -61 -71 -61 -22 0 -22 34 0 52 24
19 71 25 71 9z"/>
<path d="M2053 7044 c-51 -26 -66 -49 -70 -112 l-4 -57 26 53 c34 67 93 105
157 100 36 -3 44 -7 46 -26 5 -31 -12 -48 -74 -78 -45 -21 -57 -33 -78 -78
-30 -63 -40 -72 -88 -81 -58 -11 -44 -55 17 -55 52 1 105 59 105 116 0 38 16
54 55 54 66 0 150 93 125 140 -6 11 -19 24 -30 30 -29 16 -150 12 -187 -6z"/>
<path d="M2175 6763 c-46 -63 -54 -92 -29 -110 18 -14 45 -13 105 2 21 5 38
-3 91 -42 44 -34 96 -61 169 -87 57 -21 127 -54 156 -73 50 -35 53 -35 140
-32 72 3 98 9 146 33 32 15 56 30 53 33 -3 3 -44 0 -92 -7 -99 -14 -107 -10
-93 49 14 57 11 71 -16 81 -36 14 -89 -10 -110 -49 -17 -33 -51 -42 -61 -16
-9 22 15 73 37 80 27 9 24 22 -8 38 -34 17 -132 41 -139 34 -3 -2 6 -22 21
-42 40 -60 9 -79 -91 -54 -24 6 -47 16 -51 22 -3 5 13 25 36 44 22 19 41 38
41 43 0 13 -65 50 -88 50 -15 0 -23 -8 -28 -27 -10 -49 -13 -53 -33 -53 -11 0
-22 9 -26 20 -8 24 -24 25 -70 3 -52 -25 -63 -7 -25 45 33 47 37 62 15 62 -8
0 -31 -21 -50 -47z"/>
<path d="M2542 5081 c-13 -42 -37 -196 -47 -301 -5 -57 -4 -63 8 -47 30 36 47
15 47 -59 0 -58 -18 -130 -36 -145 -19 -16 -24 -9 -32 47 -8 54 -26 67 -43 31
-13 -29 9 -85 62 -154 17 -22 28 -46 25 -51 -9 -15 -88 -37 -316 -88 -269 -62
-554 -119 -685 -139 -171 -25 -244 -50 -283 -95 -29 -32 -124 -245 -196 -435
-256 -681 -386 -1037 -386 -1058 0 -6 20 -7 49 -3 55 7 81 1 81 -20 0 -42
-186 -47 -295 -9 -38 14 -82 25 -97 25 -35 0 -35 -7 -2 -165 45 -218 49 -245
37 -263 -19 -30 -202 -19 -408 25 -27 6 -29 5 -16 -10 19 -24 99 -45 233 -62
229 -28 226 -38 -25 -100 -188 -47 -206 -57 -92 -51 65 3 123 15 209 41 65 20
125 34 132 31 29 -11 -3 -38 -102 -88 -58 -28 -107 -55 -110 -60 -12 -19 57
-5 136 28 145 62 235 85 351 91 l107 6 17 -27 c10 -15 41 -39 69 -53 47 -24
206 -140 206 -150 0 -3 -34 -46 -76 -96 -81 -96 -104 -137 -104 -186 0 -35 22
-51 70 -51 47 0 68 16 80 59 14 51 40 83 97 117 27 15 64 41 85 57 46 37 67
32 85 -18 22 -60 19 -128 -6 -167 -38 -59 -60 -113 -51 -122 4 -4 28 -13 52
-18 58 -12 1276 -23 1263 -11 -5 5 -84 20 -175 32 -170 24 -206 33 -176 44 25
10 19 35 -11 41 -16 4 -82 5 -148 4 -179 -3 -199 10 -141 96 19 28 40 65 48
81 13 29 15 30 85 30 84 0 100 -10 123 -82 27 -82 97 -107 136 -48 12 18 11
27 -11 67 -13 25 -29 68 -35 95 -7 34 -20 56 -41 74 l-31 25 -13 170 c-13 158
-13 171 4 194 27 37 119 96 176 113 58 16 68 37 34 73 l-23 24 24 78 c58 190
62 215 67 368 6 166 -3 229 -42 310 -33 68 -58 78 -177 72 -104 -5 -151 -23
-206 -79 -55 -56 -55 -124 -1 -178 54 -55 109 -36 109 36 0 46 25 73 69 73 92
0 154 -130 113 -235 -11 -27 -25 -82 -31 -122 -15 -97 -66 -235 -99 -269 -25
-24 -32 -26 -92 -22 -52 4 -89 16 -189 62 -112 53 -220 85 -279 86 -59 0 -75
36 -26 58 21 10 35 42 17 42 -4 0 -38 -24 -77 -54 -117 -89 -246 -151 -261
-126 -4 6 7 34 24 63 61 102 84 158 71 170 -9 9 -16 6 -28 -13 -49 -72 -54
-75 -151 -78 -79 -4 -92 -2 -97 13 -8 19 116 732 147 849 10 39 16 74 13 78
-11 17 -34 7 -48 -20 -24 -47 -84 -372 -121 -658 -23 -182 -41 -249 -70 -260
-34 -13 -61 6 -96 66 -51 92 -65 107 -84 95 -10 -6 -26 -33 -36 -60 -21 -56
-41 -75 -79 -75 -72 0 -67 40 39 309 90 226 274 720 347 925 22 63 50 123 66
141 41 47 126 80 278 108 75 14 273 57 440 96 381 87 560 125 566 118 13 -13
-41 -48 -104 -67 -115 -34 -239 -130 -230 -177 6 -32 75 -37 518 -37 451 0
730 14 785 39 48 23 115 34 195 35 74 0 188 14 198 25 15 14 -25 20 -201 27
-197 7 -310 25 -355 54 l-26 17 25 10 c29 11 496 2 643 -13 54 -5 104 -14 111
-20 11 -9 24 -91 40 -240 3 -25 14 -166 25 -315 34 -457 59 -656 95 -783 15
-49 15 -56 0 -78 -8 -13 -28 -30 -43 -38 -85 -43 -631 -226 -676 -226 -46 0
-116 -50 -228 -162 -64 -65 -118 -118 -121 -118 -5 0 -5 1 -58 465 -21 193
-50 440 -64 549 -14 110 -25 201 -25 203 0 1 -5 3 -11 3 -18 0 12 -406 56
-745 34 -260 45 -383 37 -430 l-7 -40 -68 -6 c-37 -3 -73 -11 -79 -17 -16 -16
7 -41 60 -63 37 -16 42 -22 32 -34 -14 -17 -106 -45 -149 -45 -25 0 -33 6 -45
33 -7 17 -32 52 -55 76 -33 35 -44 42 -54 32 -9 -9 -4 -27 26 -84 49 -93 56
-153 57 -459 l0 -238 -182 -1 c-101 0 -201 -3 -223 -8 -38 -7 -36 -7 35 -15
231 -23 880 -35 909 -17 25 16 -56 31 -231 43 l-168 12 0 75 c1 124 19 454 26
479 4 12 19 29 34 37 67 35 229 184 366 337 36 40 64 51 334 139 183 60 201
64 287 63 51 0 96 -4 100 -8 4 -4 -5 -17 -20 -28 -54 -39 -68 -100 -86 -363
-6 -77 -13 -181 -16 -231 l-6 -91 163 -12 c302 -21 336 -23 357 -16 31 10 15
25 -27 26 -46 0 -104 20 -109 36 -4 10 31 12 143 10 102 -1 148 1 151 9 7 20
-35 24 -279 31 l-238 6 0 358 0 357 48 16 c72 24 112 53 128 91 l14 36 64 -7
c55 -6 64 -4 70 11 14 37 -62 326 -202 770 -64 203 -87 304 -97 427 -6 86 -26
171 -55 235 l-19 43 -344 0 c-190 0 -359 3 -376 6 -79 16 -74 94 11 166 167
142 206 193 259 340 37 100 42 177 15 206 -29 33 -106 44 -286 40 l-165 -3
110 -12 c131 -14 215 -31 215 -44 0 -4 -26 -16 -57 -26 -69 -20 -359 -24 -405
-5 -33 14 -36 32 -8 39 12 3 19 11 17 17 -7 20 -52 18 -81 -5 -80 -63 -90
-238 -21 -384 50 -105 159 -195 237 -195 54 0 75 -53 37 -91 -21 -21 -27 -22
-173 -15 -83 4 -200 11 -261 14 -60 4 -130 5 -154 2 -37 -4 -42 -7 -29 -18 26
-21 107 -32 298 -37 238 -7 290 -13 297 -31 9 -25 -30 -47 -134 -74 -23 -6
-61 -27 -85 -46 -39 -33 -46 -36 -90 -31 -54 7 -114 35 -143 67 -32 36 -106
80 -136 80 -24 0 -59 22 -59 36 0 2 11 32 25 66 31 75 32 131 5 287 -10 64
-29 188 -41 276 -11 88 -24 164 -28 168 -4 4 -13 -10 -19 -32z m1042 -140 c45
-10 53 -31 33 -95 -36 -112 -150 -249 -247 -294 -66 -32 -148 -35 -198 -8 -62
32 -161 211 -169 306 -7 77 2 83 141 91 147 8 404 8 440 0z m-992 -448 l-10
-28 -7 27 c-8 31 2 55 17 40 7 -7 7 -20 0 -39z m80 -270 c65 -38 45 -83 -36
-83 -112 1 -286 34 -286 55 0 51 247 72 322 28z m569 -58 c19 -10 52 -15 94
-14 72 2 90 -6 62 -26 -26 -18 -135 -29 -214 -21 -104 11 -131 35 -70 61 42
19 91 19 128 0z m1028 -669 c73 -223 151 -511 151 -559 0 -22 -36 -36 -70 -27
-36 9 -56 52 -79 165 -32 156 -71 443 -71 515 1 59 2 63 15 46 8 -10 32 -73
54 -140z m-3169 -972 c0 -23 -4 -34 -12 -32 -33 11 -36 68 -3 68 11 0 15 -10
15 -36z m200 -3 c-16 -31 -91 -92 -107 -89 -23 4 -33 51 -19 80 12 25 50 36
103 30 27 -4 31 -7 23 -21z m520 -56 c67 -23 289 -122 303 -135 4 -3 -50 -17
-120 -30 -159 -28 -303 -64 -342 -85 -41 -21 -46 -10 -45 106 1 180 35 204
204 144z m-832 -69 c6 -14 22 -26 41 -29 39 -8 39 -28 0 -61 -56 -47 -99 -24
-99 54 0 68 33 89 58 36z m528 -2 c43 -20 41 -43 -4 -58 -21 -7 -38 -23 -50
-46 -16 -32 -22 -36 -85 -47 -37 -7 -78 -20 -90 -28 -21 -15 -16 -16 76 -10
85 7 97 5 97 -9 0 -53 -224 -86 -302 -45 -32 17 -19 52 25 64 35 10 36 11 20
28 -16 16 -16 18 6 41 41 44 196 117 264 125 5 1 24 -6 43 -15z m2608 -19 c-6
-15 -42 -30 -51 -21 -12 12 8 36 31 36 18 0 24 -4 20 -15z m-2879 -5 c10 -16
-12 -38 -51 -50 -42 -14 -66 -7 -57 16 11 30 94 56 108 34z m-520 -40 c33 -64
1 -140 -60 -140 -35 0 -67 35 -63 68 3 26 5 27 56 25 l52 -2 -26 23 c-18 15
-25 29 -21 39 10 27 45 20 62 -13z m3386 -51 c9 -17 8 -25 -4 -36 -20 -21 -37
-8 -37 28 0 35 24 39 41 8z m-21 -164 c0 -19 -4 -35 -10 -35 -11 0 -14 53 -3
63 11 12 13 8 13 -28z m-1141 -204 c12 -8 12 -12 2 -25 -16 -19 -51 -21 -51
-3 0 13 19 37 30 37 3 0 11 -4 19 -9z m7 -159 c-7 -22 -32 -36 -47 -26 -14 9
-10 41 7 59 15 14 19 15 31 2 9 -9 12 -23 9 -35z m-1171 -45 c45 -25 85 -78
85 -114 0 -13 -8 -35 -17 -49 -9 -14 -22 -47 -28 -72 -14 -56 -15 -56 -190
-71 -66 -5 -131 -13 -144 -17 -21 -6 -23 -5 -18 17 3 13 16 74 30 134 26 119
34 140 65 168 46 41 144 43 217 4z"/>
<path d="M10978 5064 c-40 -21 -44 -52 -14 -104 29 -51 32 -77 11 -104 -8 -11
-15 -37 -15 -58 0 -21 -7 -65 -17 -98 l-16 -60 24 -26 c48 -51 34 -223 -21
-251 -13 -7 -30 -27 -36 -45 -7 -21 -19 -35 -35 -39 -13 -4 -148 -7 -300 -8
l-276 -1 -7 46 c-16 116 -9 129 102 207 80 56 115 97 154 182 20 44 23 66 23
180 0 72 -3 138 -7 148 -13 31 -458 21 -491 -12 -5 -5 74 -6 176 -3 207 5 260
0 255 -26 -5 -26 -145 -69 -268 -82 -122 -13 -212 -3 -268 30 -33 20 -37 20
-48 5 -16 -22 -28 -151 -19 -204 9 -53 64 -163 106 -215 41 -48 82 -66 157
-66 32 0 63 -5 70 -12 15 -15 16 -95 1 -137 -24 -68 -111 -85 -413 -80 l-229
4 -42 -105 c-23 -58 -106 -287 -183 -510 -77 -223 -160 -459 -183 -525 l-43
-120 19 -39 c28 -58 84 -112 130 -125 22 -6 95 -11 163 -11 l122 0 0 -439 c0
-410 1 -440 18 -445 108 -32 240 -49 389 -50 110 -1 166 3 174 11 20 19 -29
36 -126 42 -97 7 -91 15 18 26 38 4 66 9 63 13 -6 5 -289 30 -357 32 l-26 0
-7 232 c-3 127 -9 298 -13 381 -6 141 -5 149 12 146 12 -3 22 -17 28 -39 6
-25 36 -61 101 -126 73 -71 111 -100 179 -134 48 -24 109 -61 136 -81 70 -53
91 -63 104 -50 17 17 -7 56 -55 92 -24 17 -92 56 -152 86 -113 57 -156 93
-288 245 -93 106 -185 136 -320 104 -111 -26 -116 -16 -68 140 54 174 161 669
225 1037 24 140 19 137 205 147 230 12 296 -7 181 -53 -60 -24 -103 -69 -83
-89 25 -25 518 -34 610 -11 26 6 29 34 4 56 -28 25 -104 57 -139 57 -61 0 -81
20 -42 41 16 8 79 8 250 -2 l229 -13 -76 -71 c-68 -64 -75 -74 -65 -92 6 -12
25 -26 43 -33 46 -17 337 -25 437 -11 145 19 171 51 108 133 -41 54 -49 72
-34 87 17 17 35 14 125 -24 46 -19 125 -46 175 -60 51 -15 189 -57 307 -95
118 -38 267 -85 330 -104 119 -37 149 -50 138 -61 -11 -11 -139 -24 -243 -25
-157 -1 -820 -56 -862 -71 -13 -5 -23 -16 -23 -25 0 -14 8 -16 58 -11 528 52
1242 94 1242 72 0 -5 27 -133 60 -284 95 -439 161 -779 167 -867 7 -99 0 -108
-108 -149 -105 -40 -186 -81 -246 -126 -29 -22 -65 -45 -80 -52 -20 -8 -134
-12 -413 -13 -242 -1 -397 -5 -417 -12 -18 -6 -49 -23 -69 -39 l-38 -28 -197
3 -197 3 -80 -35 c-110 -48 -176 -66 -242 -66 -68 0 -117 15 -130 40 -15 29
-12 108 9 205 27 123 93 557 131 860 26 206 31 275 28 395 -5 184 -17 213
-109 259 -73 36 -89 38 -89 11 0 -15 15 -27 55 -47 35 -16 61 -36 70 -53 23
-44 37 -157 30 -245 -19 -259 -102 -820 -181 -1232 -27 -141 -26 -151 20 -201
28 -31 62 -48 114 -57 73 -12 77 -29 67 -290 -5 -121 -9 -247 -9 -280 l-1 -60
85 -8 c101 -10 692 -1 735 11 l30 8 -25 7 c-14 4 -129 12 -255 16 -127 5 -277
15 -333 22 l-102 12 0 282 0 281 75 43 c102 58 161 75 215 61 43 -12 48 -18
72 -100 16 -54 10 -53 288 -71 266 -17 575 -18 591 -2 22 22 -39 36 -179 41
-74 2 -130 8 -125 12 4 4 50 13 101 20 51 7 90 15 87 18 -3 3 -140 8 -305 11
-309 6 -339 11 -305 45 11 11 34 16 70 16 48 0 56 3 77 31 58 77 61 79 140 79
116 0 633 -51 645 -64 6 -6 23 -235 23 -316 0 -98 -5 -114 -43 -129 l-32 -13
25 -8 c34 -11 510 -12 510 -1 0 7 -50 14 -272 37 l-57 6 -6 63 c-4 35 -5 136
-3 226 6 249 26 277 263 379 66 29 137 63 159 77 38 24 38 26 33 73 -3 26 -20
96 -37 154 -64 220 -182 797 -196 951 -8 97 -32 158 -71 178 -15 8 -66 23
-113 32 -47 9 -200 55 -340 100 -140 46 -320 102 -400 125 -80 23 -219 67
-310 97 -107 37 -182 56 -213 57 -60 0 -63 11 -51 145 26 277 -3 542 -61 565
-12 4 -15 16 -13 43 4 51 31 56 58 11 l20 -33 0 27 c0 30 -23 58 -48 58 -9 -1
-29 -7 -44 -16z m-468 -171 c-1 -69 -20 -173 -39 -212 -45 -88 -152 -147 -284
-157 -90 -7 -130 11 -168 76 -45 78 -80 178 -77 218 l3 37 170 6 c150 6 182
10 270 37 55 17 106 31 113 31 7 1 12 -13 12 -36z m530 -228 c0 -37 -4 -65
-10 -65 -11 0 -14 113 -3 123 12 13 13 7 13 -58z m-350 -455 c11 -7 1 -10 -35
-10 -36 0 -46 3 -35 10 8 5 24 10 35 10 11 0 27 -5 35 -10z m449 -76 c37 -22
46 -42 23 -52 -24 -10 -329 -9 -339 1 -11 12 34 45 87 62 60 20 187 14 229
-11z m-948 -23 c19 -15 45 -20 116 -22 71 -3 96 -8 110 -21 16 -17 11 -18
-107 -18 -116 0 -239 17 -276 38 -11 6 1 13 48 24 82 21 81 21 109 -1z m931
-89 c6 -6 9 -14 6 -18 -13 -12 -148 -23 -209 -16 -59 7 -62 9 -41 20 54 31
218 40 244 14z m-1647 -371 c-65 -362 -135 -671 -165 -732 -27 -51 -47 -51
-83 1 -28 40 -21 112 22 240 21 63 60 187 86 275 74 253 163 476 173 433 2 -9
-13 -107 -33 -217z m171 -1045 c7 -29 -1 -46 -22 -46 -9 0 -14 11 -14 35 0 41
26 49 36 11z m10 -131 c20 -31 12 -75 -15 -75 -21 0 -31 19 -31 59 0 47 21 55
46 16z m10 -171 c8 -30 -16 -60 -40 -51 -16 6 -23 57 -9 70 16 16 43 6 49 -19z
m2634 -179 c0 -11 -5 -27 -10 -35 -7 -11 -10 -1 -10 35 0 36 3 46 10 35 5 -8
10 -24 10 -35z m-2650 -54 c15 -28 13 -33 -12 -29 -15 2 -24 11 -26 26 -4 28
23 30 38 3z"/>
<path d="M3975 4180 c-4 -6 11 -10 37 -10 31 0 39 3 28 10 -20 13 -57 13 -65
0z"/>
<path d="M3331 3897 c-35 -12 -62 -26 -62 -32 3 -15 59 -8 124 16 107 40 50
55 -62 16z"/>
<path d="M8146 3775 c-24 -26 -42 -73 -31 -83 11 -11 75 62 75 85 0 30 -15 29
-44 -2z"/>
<path d="M2967 3678 c-7 -28 9 -94 25 -104 8 -5 9 9 5 51 -7 65 -21 90 -30 53z"/>
<path d="M2941 3205 c0 -42 2 -46 11 -28 7 15 7 30 0 50 -10 26 -10 24 -11
-22z"/>
<path d="M2941 2880 c0 -3 -8 -68 -16 -145 -21 -202 -19 -365 5 -365 4 0 11
10 14 23 12 41 18 341 8 417 -5 41 -10 73 -11 70z"/>
<path d="M3190 2051 c-21 -6 -15 -9 34 -19 76 -15 200 -15 268 0 50 11 51 12
23 19 -39 9 -293 9 -325 0z"/>
<path d="M9299 994 c-15 -18 -2 -47 24 -52 25 -5 40 33 21 52 -19 20 -28 20
-45 0z"/>
<path d="M4524 945 c-8 -21 2 -45 19 -45 8 0 20 7 27 15 10 12 10 18 0 30 -7
8 -19 15 -27 15 -7 0 -16 -7 -19 -15z"/>
<path d="M11591 896 c-11 -13 -11 -17 2 -22 25 -9 62 0 62 16 0 21 -49 25 -64
6z"/>
<path d="M5040 885 c-14 -17 -7 -45 13 -45 24 0 51 26 44 44 -8 20 -40 21 -57
1z"/>
<path d="M10274 705 c-8 -21 2 -45 19 -45 8 0 20 7 27 15 10 12 10 18 0 30 -7
8 -19 15 -27 15 -7 0 -16 -7 -19 -15z"/>
<path d="M4014 645 c-9 -23 3 -45 25 -45 23 0 35 28 20 46 -15 18 -38 18 -45
-1z"/>
<path d="M10034 569 c-3 -6 -2 -15 4 -21 15 -15 56 -5 60 15 3 13 -3 17 -27
17 -16 0 -33 -5 -37 -11z"/>
<path d="M10948 549 c-26 -15 -23 -41 5 -37 14 2 23 11 25 26 4 24 -4 27 -30
11z"/>
<path d="M9480 531 c-19 -4 -44 -12 -55 -18 l-20 -12 20 -8 c34 -14 332 -10
347 5 9 9 9 15 0 25 -15 14 -234 20 -292 8z"/>
<path d="M8960 440 c0 -14 79 -52 96 -46 20 8 17 34 -5 46 -25 13 -91 13 -91
0z"/>
<path d="M11595 420 c-16 -18 -16 -20 -1 -26 24 -9 46 3 46 26 0 26 -22 26
-45 0z"/>
<path d="M4015 420 c-11 -18 10 -32 41 -28 40 4 38 32 -3 36 -17 2 -34 -2 -38
-8z"/>
<path d="M10330 365 c0 -27 25 -44 41 -28 10 10 -16 53 -32 53 -5 0 -9 -11 -9
-25z"/>
<path d="M9704 336 c-13 -54 23 -89 47 -45 8 16 8 28 0 45 -14 31 -39 31 -47
0z"/>
</g>
</svg>
